<?xml version="1.0" encoding="utf-8"?>
<!-- Generator: Adobe Illustrator 20.1.0, SVG Export Plug-In . SVG Version: 6.00 Build 0)  -->
<svg version="1.1" id="Layer_1" xmlns="http://www.w3.org/2000/svg" xmlns:xlink="http://www.w3.org/1999/xlink" x="0px" y="0px"
	 viewBox="0 0 381.4 108.3" style="enable-background:new 0 0 381.4 108.3;" xml:space="preserve">
<style type="text/css">
	.st0{fill:#FFFFFF;}
	.st1{fill:#406EFF;}
	.st2{fill:url(#SVGID_1_);}
	.st3{opacity:0.5;}
	.st4{fill:#E3F1FF;}
	.st5{fill:#ADC6FF;}
	.st6{fill:#FF4D4F;}
	.st7{fill:#FFA1AA;}
	.st8{fill:#FFB140;}
	.st9{fill:#FFD297;}
	.st10{fill:#FFBD66;}
	.st11{fill:url(#SVGID_2_);}
	.st12{fill:#1C1C1C;}
	.st13{fill:none;stroke:#406EFF;stroke-width:2;stroke-miterlimit:10;}
	.st14{fill:none;stroke:#FFFFFF;stroke-width:2;stroke-miterlimit:10;}
	.st15{fill:none;stroke:#E3F1FF;stroke-width:2;stroke-miterlimit:10;}
	.st16{fill:url(#SVGID_3_);}
	.st17{fill:url(#SVGID_4_);}
	.st18{fill:url(#SVGID_5_);}
	.st19{fill:url(#SVGID_6_);}
	.st20{fill:url(#SVGID_7_);}
	.st21{fill:none;stroke:#406EFF;stroke-width:6;stroke-miterlimit:10;}
	.st22{fill:none;stroke:#406EFF;stroke-miterlimit:10;}
	.st23{fill:#6C96FF;}
	.st24{fill:url(#SVGID_8_);}
	.st25{fill:url(#SVGID_9_);}
	.st26{opacity:0.7;}
	.st27{fill:url(#SVGID_10_);}
</style>
<rect x="-774.9" y="394.3" class="st0" width="475" height="475"/>
<rect x="-1425.4" y="394.3" class="st0" width="475" height="475"/>
<rect x="-813.1" y="-201.7" class="st0" width="579.7" height="507"/>
<rect x="-813.1" y="-570.7" class="st0" width="579.7" height="335.6"/>
<circle class="st1" cx="-190.2" cy="-86.8" r="38.7"/>
<linearGradient id="SVGID_1_" gradientUnits="userSpaceOnUse" x1="-174.8343" y1="8.555" x2="-157.2813" y2="8.555">
	<stop  offset="0" style="stop-color:#406EFF"/>
	<stop  offset="1" style="stop-color:#4092FF"/>
</linearGradient>
<polygon class="st2" points="-174.8,8.6 -166.1,3.5 -157.3,8.6 -166.1,13.6 "/>
<g class="st3">
	
		<image style="overflow:visible;" width="374" height="343" xlink:href="1A816350.png"  transform="matrix(0.24 0 0 0.24 -210.8343 -17.1217)">
	</image>
</g>
<polygon class="st4" points="-174.8,8.6 -174.8,18.7 -166.1,23.8 -166.1,13.6 "/>
<polygon class="st5" points="-166.1,13.6 -166.1,23.8 -157.3,18.7 -157.3,8.6 "/>
<polygon class="st6" points="-138.7,79.9 -127.5,73.4 -116.3,79.9 -127.5,86.4 "/>
<g class="st3">
	
		<image style="overflow:visible;" width="394" height="355" xlink:href="1A81636C.png"  transform="matrix(0.24 0 0 0.24 -174.7263 57.1235)">
	</image>
</g>
<polygon class="st7" points="-138.7,79.9 -138.7,92.9 -127.5,99.4 -127.5,86.4 "/>
<polygon class="st7" points="-127.5,86.4 -127.5,99.4 -116.3,92.9 -116.3,79.9 "/>
<polygon class="st8" points="-216.8,45.7 -207.2,40.2 -197.6,45.7 -207.2,51.3 "/>
<g class="st3">
	
		<image style="overflow:visible;" width="380" height="347" xlink:href="1A81636D.png"  transform="matrix(0.24 0 0 0.24 -252.8262 21.0846)">
	</image>
</g>
<polygon class="st9" points="-216.8,45.7 -216.8,56.8 -207.2,62.4 -207.2,51.3 "/>
<polygon class="st10" points="-207.2,51.3 -207.2,62.4 -197.6,56.8 -197.6,45.7 "/>
<path d="M-1081.9-70.3v42.1h-6.9c-1.4,0-2.4-0.7-2.8-2l-0.7-2.9c-0.8,0.8-1.7,1.6-2.6,2.2c-0.9,0.7-1.9,1.3-2.9,1.8
	c-1,0.5-2.1,0.9-3.3,1.1c-1.2,0.3-2.5,0.4-3.9,0.4c-2.3,0-4.3-0.4-6.1-1.2c-1.8-0.8-3.3-1.9-4.5-3.3c-1.2-1.4-2.1-3.1-2.7-5.1
	c-0.6-2-0.9-4.1-0.9-6.4v-26.7h11.3v26.7c0,2.3,0.5,4.2,1.6,5.4c1.1,1.3,2.7,1.9,4.8,1.9c1.6,0,3.1-0.3,4.4-1c1.4-0.7,2.7-1.6,4-2.8
	v-30.2H-1081.9z"/>
<path d="M-1068.6-63.3c1.3-2.4,2.9-4.3,4.6-5.7c1.7-1.4,3.8-2.1,6.1-2.1c1.9,0,3.5,0.4,4.7,1.3l-0.7,8.3c-0.1,0.5-0.3,0.9-0.6,1.1
	c-0.3,0.2-0.7,0.3-1.2,0.3c-0.4,0-1.1-0.1-1.9-0.2c-0.8-0.1-1.6-0.2-2.3-0.2c-1,0-2,0.1-2.8,0.4c-0.8,0.3-1.5,0.7-2.1,1.3
	c-0.6,0.5-1.2,1.2-1.7,2c-0.5,0.8-1,1.7-1.4,2.7v25.7h-11.3v-42.1h6.6c1.1,0,1.9,0.2,2.4,0.6c0.4,0.4,0.7,1.1,0.9,2.1L-1068.6-63.3z
	"/>
<path d="M-1040.4-89v34.5h1.9c0.7,0,1.3-0.1,1.7-0.3c0.4-0.2,0.8-0.6,1.2-1.1l9.3-12.4c0.5-0.6,1-1.1,1.6-1.4
	c0.6-0.3,1.3-0.5,2.2-0.5h10.3l-12.1,15.3c-1,1.3-2.1,2.3-3.3,3c0.6,0.4,1.2,0.9,1.6,1.5c0.5,0.6,0.9,1.2,1.3,1.9l13,20.3h-10.1
	c-0.9,0-1.6-0.1-2.2-0.4c-0.6-0.3-1.1-0.8-1.5-1.5l-9.5-15.5c-0.4-0.7-0.8-1.1-1.2-1.3c-0.4-0.2-1-0.3-1.8-0.3h-2.4v19h-11.3V-89
	H-1040.4z"/>
<path d="M-1006.7-47.5c0.4,3.9,1.5,6.8,3.4,8.6c1.9,1.8,4.4,2.7,7.4,2.7c1.5,0,2.9-0.2,4-0.6c1.1-0.4,2.1-0.8,3-1.2
	c0.9-0.4,1.6-0.9,2.3-1.2c0.7-0.4,1.4-0.6,2.1-0.6c0.9,0,1.6,0.3,2,1l3.3,4.1c-1.2,1.4-2.5,2.5-4,3.4c-1.4,0.9-2.9,1.6-4.5,2.2
	c-1.6,0.5-3.1,0.9-4.7,1.1c-1.6,0.2-3.1,0.3-4.6,0.3c-2.9,0-5.7-0.5-8.2-1.4c-2.5-1-4.8-2.4-6.6-4.3c-1.9-1.9-3.4-4.2-4.5-7
	c-1.1-2.8-1.6-6.1-1.6-9.7c0-2.9,0.5-5.5,1.4-8.1c0.9-2.5,2.3-4.7,4.1-6.6c1.8-1.9,3.9-3.4,6.4-4.5c2.5-1.1,5.4-1.7,8.6-1.7
	c2.7,0,5.2,0.4,7.4,1.3c2.3,0.9,4.2,2.1,5.9,3.7c1.6,1.6,2.9,3.6,3.8,6c0.9,2.4,1.4,5.1,1.4,8.1c0,0.8,0,1.5-0.1,2.1
	c-0.1,0.5-0.2,1-0.4,1.3c-0.2,0.3-0.4,0.5-0.8,0.7c-0.3,0.1-0.7,0.2-1.3,0.2H-1006.7z M-989-54.2c0-1.2-0.2-2.3-0.5-3.3
	c-0.3-1.1-0.8-2-1.5-2.8c-0.7-0.8-1.5-1.5-2.6-1.9c-1-0.5-2.3-0.7-3.7-0.7c-2.7,0-4.8,0.8-6.3,2.3c-1.5,1.5-2.5,3.7-3,6.5H-989z"/>
<path d="M-964.7-63.3c1.3-2.4,2.9-4.3,4.6-5.7c1.7-1.4,3.8-2.1,6.1-2.1c1.9,0,3.5,0.4,4.7,1.3l-0.7,8.3c-0.1,0.5-0.3,0.9-0.6,1.1
	c-0.3,0.2-0.7,0.3-1.2,0.3c-0.4,0-1.1-0.1-1.9-0.2c-0.8-0.1-1.6-0.2-2.3-0.2c-1,0-2,0.1-2.8,0.4c-0.8,0.3-1.5,0.7-2.1,1.3
	c-0.6,0.5-1.2,1.2-1.7,2c-0.5,0.8-1,1.7-1.4,2.7v25.7h-11.3v-42.1h6.6c1.1,0,1.9,0.2,2.4,0.6c0.4,0.4,0.7,1.1,0.9,2.1L-964.7-63.3z"
	/>
<path d="M-937.3-64.4c2.5-2.2,5.2-3.9,8.2-5c3-1.1,6.2-1.7,9.7-1.7c2.5,0,4.7,0.4,6.7,1.2c2,0.8,3.6,2,5,3.4
	c1.4,1.5,2.4,3.2,3.2,5.2c0.7,2,1.1,4.2,1.1,6.6v26.4h-5.1c-1.1,0-1.9-0.1-2.4-0.4c-0.6-0.3-1-0.9-1.4-1.9l-0.9-2.7
	c-1.1,0.9-2.1,1.7-3.1,2.4c-1,0.7-2,1.3-3.1,1.8c-1.1,0.5-2.2,0.8-3.4,1.1c-1.2,0.2-2.6,0.4-4.1,0.4c-1.8,0-3.5-0.2-5.1-0.7
	c-1.5-0.5-2.8-1.2-3.9-2.2c-1.1-1-2-2.2-2.5-3.6c-0.6-1.4-0.9-3.1-0.9-5c0-1.5,0.4-3.1,1.2-4.6c0.8-1.6,2.1-3,4.1-4.2
	c1.9-1.3,4.5-2.3,7.7-3.1c3.2-0.8,7.2-1.3,12-1.4v-2.2c0-2.6-0.6-4.6-1.7-5.8c-1.1-1.2-2.7-1.9-4.8-1.9c-1.5,0-2.8,0.2-3.9,0.6
	c-1,0.4-1.9,0.8-2.7,1.2c-0.8,0.4-1.5,0.8-2.2,1.2c-0.7,0.4-1.5,0.5-2.4,0.5c-0.8,0-1.4-0.2-2-0.6c-0.5-0.4-1-0.9-1.3-1.4
	L-937.3-64.4z M-914.4-45.8c-2.7,0.1-5,0.4-6.9,0.7c-1.8,0.3-3.3,0.8-4.3,1.3c-1.1,0.5-1.8,1.2-2.3,1.9c-0.4,0.7-0.7,1.4-0.7,2.3
	c0,1.6,0.5,2.8,1.4,3.5c0.9,0.7,2.2,1,3.8,1c1.9,0,3.5-0.3,4.9-1c1.4-0.7,2.7-1.7,4.1-3.1V-45.8z"/>
<path d="M-888.2-82.2c0,1-0.2,1.8-0.6,2.7c-0.4,0.8-0.9,1.5-1.5,2.2c-0.6,0.6-1.4,1.1-2.2,1.5c-0.9,0.4-1.8,0.5-2.8,0.5
	c-0.9,0-1.8-0.2-2.6-0.5c-0.8-0.4-1.6-0.8-2.2-1.5c-0.6-0.6-1.1-1.3-1.5-2.2c-0.4-0.8-0.6-1.7-0.6-2.7c0-1,0.2-1.8,0.6-2.7
	c0.4-0.8,0.9-1.6,1.5-2.2c0.6-0.6,1.4-1.1,2.2-1.5c0.8-0.4,1.7-0.5,2.6-0.5c1,0,1.9,0.2,2.8,0.5c0.9,0.4,1.6,0.8,2.2,1.5
	c0.6,0.6,1.1,1.4,1.5,2.2C-888.4-84.1-888.2-83.2-888.2-82.2z M-889.6-70.3v42.1h-11.3v-42.1H-889.6z"/>
<path d="M-1102.5-87.4l-18.4,59.2h-11.1l-12.1-38.7c-0.2-0.5-0.4-1.1-0.6-1.8c-0.2-0.7-0.4-1.3-0.5-2.1c-0.2,0.7-0.3,1.4-0.5,2.1
	c-0.2,0.7-0.4,1.3-0.6,1.8l-12.2,38.7h-11.1l-18.3-59.2h10.3c1.1,0,2,0.2,2.7,0.7c0.7,0.5,1.2,1.1,1.4,2l9.2,33.4
	c0.2,0.9,0.4,1.9,0.7,3c0.2,1.1,0.5,2.2,0.7,3.4c0.2-1.2,0.5-2.4,0.8-3.4c0.3-1.1,0.6-2.1,0.9-3l10.7-33.4c0.2-0.7,0.7-1.3,1.4-1.9
	c0.7-0.6,1.6-0.8,2.6-0.8h3.6c1.1,0,1.9,0.3,2.6,0.8c0.7,0.5,1.2,1.1,1.5,1.9l10.6,33.4c0.3,0.9,0.6,1.8,0.9,2.8
	c0.3,1,0.5,2.1,0.8,3.2c0.2-1.1,0.4-2.2,0.6-3.2c0.2-1,0.4-2,0.6-2.8l9.2-33.4c0.2-0.7,0.7-1.3,1.4-1.9c0.7-0.5,1.6-0.8,2.7-0.8
	H-1102.5z"/>
<linearGradient id="SVGID_2_" gradientUnits="userSpaceOnUse" x1="-758.2686" y1="38.2821" x2="-628.2686" y2="38.2821">
	<stop  offset="0" style="stop-color:#406EFF"/>
	<stop  offset="1" style="stop-color:#4092FF"/>
</linearGradient>
<path class="st11" d="M-663.8,103.3h-59c-19.6,0-35.5-15.9-35.5-35.5v-59c0-19.6,15.9-35.5,35.5-35.5h94.5v94.5
	C-628.3,87.4-644.2,103.3-663.8,103.3z"/>
<g>
	<path class="st12" d="M161.6-261.8v26.3h-4.3c-0.9,0-1.5-0.4-1.7-1.2l-0.5-1.8c-0.5,0.5-1.1,1-1.6,1.4c-0.6,0.4-1.2,0.8-1.8,1.1
		c-0.6,0.3-1.3,0.5-2.1,0.7c-0.7,0.2-1.5,0.3-2.4,0.3c-1.4,0-2.7-0.2-3.8-0.7c-1.1-0.5-2-1.2-2.8-2.1c-0.7-0.9-1.3-1.9-1.7-3.2
		c-0.4-1.2-0.6-2.6-0.6-4v-16.7h7v16.7c0,1.5,0.3,2.6,1,3.4c0.7,0.8,1.7,1.2,3,1.2c1,0,1.9-0.2,2.8-0.7c0.9-0.4,1.7-1,2.5-1.8v-18.9
		H161.6z"/>
	<path class="st12" d="M170-257.5c0.8-1.5,1.8-2.7,2.9-3.5c1.1-0.9,2.4-1.3,3.8-1.3c1.2,0,2.2,0.3,2.9,0.8l-0.5,5.2
		c-0.1,0.3-0.2,0.6-0.4,0.7c-0.2,0.1-0.4,0.2-0.7,0.2c-0.3,0-0.7,0-1.2-0.1c-0.5-0.1-1-0.1-1.4-0.1c-0.6,0-1.2,0.1-1.7,0.3
		c-0.5,0.2-0.9,0.5-1.3,0.8c-0.4,0.3-0.7,0.8-1.1,1.2c-0.3,0.5-0.6,1.1-0.9,1.7v16.1h-7v-26.3h4.2c0.7,0,1.2,0.1,1.5,0.4
		c0.3,0.3,0.5,0.7,0.6,1.3L170-257.5z"/>
	<path class="st12" d="M187.6-273.5v21.6h1.2c0.4,0,0.8-0.1,1-0.2c0.3-0.1,0.5-0.4,0.8-0.7l5.8-7.7c0.3-0.4,0.6-0.7,1-0.9
		c0.4-0.2,0.8-0.3,1.4-0.3h6.4l-7.5,9.6c-0.6,0.8-1.3,1.4-2.1,1.9c0.4,0.3,0.7,0.6,1,0.9c0.3,0.4,0.6,0.8,0.8,1.2l8.1,12.7h-6.3
		c-0.5,0-1-0.1-1.4-0.3c-0.4-0.2-0.7-0.5-1-1l-5.9-9.7c-0.2-0.4-0.5-0.7-0.7-0.8c-0.3-0.1-0.6-0.2-1.1-0.2h-1.5v11.9h-7v-38H187.6z"
		/>
	<path class="st12" d="M208.6-247.6c0.2,2.5,0.9,4.3,2.1,5.4c1.2,1.1,2.7,1.7,4.6,1.7c1,0,1.8-0.1,2.5-0.3c0.7-0.2,1.3-0.5,1.9-0.8
		c0.5-0.3,1-0.5,1.5-0.8c0.4-0.2,0.9-0.3,1.3-0.3c0.5,0,1,0.2,1.3,0.6l2,2.5c-0.7,0.9-1.6,1.6-2.5,2.2c-0.9,0.6-1.8,1-2.8,1.4
		c-1,0.3-1.9,0.6-2.9,0.7c-1,0.1-1.9,0.2-2.9,0.2c-1.8,0-3.5-0.3-5.1-0.9c-1.6-0.6-3-1.5-4.2-2.7c-1.2-1.2-2.1-2.6-2.8-4.4
		c-0.7-1.7-1-3.8-1-6.1c0-1.8,0.3-3.5,0.9-5c0.6-1.6,1.4-3,2.5-4.1c1.1-1.2,2.4-2.1,4-2.8c1.6-0.7,3.4-1,5.4-1
		c1.7,0,3.2,0.3,4.7,0.8c1.4,0.5,2.6,1.3,3.7,2.3c1,1,1.8,2.3,2.4,3.8c0.6,1.5,0.9,3.2,0.9,5.1c0,0.5,0,1-0.1,1.3
		c-0.1,0.3-0.1,0.6-0.3,0.8c-0.1,0.2-0.3,0.3-0.5,0.4c-0.2,0.1-0.5,0.1-0.8,0.1H208.6z M219.7-251.7c0-0.7-0.1-1.4-0.3-2.1
		c-0.2-0.7-0.5-1.2-0.9-1.8c-0.4-0.5-1-0.9-1.6-1.2c-0.6-0.3-1.4-0.4-2.3-0.4c-1.7,0-3,0.5-4,1.4c-1,1-1.6,2.3-1.9,4.1H219.7z"/>
	<path class="st12" d="M234.9-257.5c0.8-1.5,1.8-2.7,2.9-3.5c1.1-0.9,2.4-1.3,3.8-1.3c1.2,0,2.2,0.3,2.9,0.8l-0.5,5.2
		c-0.1,0.3-0.2,0.6-0.4,0.7c-0.2,0.1-0.4,0.2-0.7,0.2c-0.3,0-0.7,0-1.2-0.1c-0.5-0.1-1-0.1-1.4-0.1c-0.6,0-1.2,0.1-1.7,0.3
		c-0.5,0.2-0.9,0.5-1.3,0.8c-0.4,0.3-0.7,0.8-1.1,1.2c-0.3,0.5-0.6,1.1-0.9,1.7v16.1h-7v-26.3h4.2c0.7,0,1.2,0.1,1.5,0.4
		c0.3,0.3,0.5,0.7,0.6,1.3L234.9-257.5z"/>
	<path class="st12" d="M239.4-239.2c0-0.6,0.1-1.1,0.3-1.6c0.2-0.5,0.5-0.9,0.9-1.3c0.4-0.4,0.8-0.7,1.3-0.9c0.5-0.2,1-0.3,1.6-0.3
		c0.6,0,1.1,0.1,1.6,0.3c0.5,0.2,1,0.5,1.3,0.9c0.4,0.4,0.7,0.8,0.9,1.3c0.2,0.5,0.3,1,0.3,1.6c0,0.6-0.1,1.1-0.3,1.6
		c-0.2,0.5-0.5,0.9-0.9,1.3c-0.4,0.4-0.8,0.6-1.3,0.9s-1.1,0.3-1.6,0.3c-0.6,0-1.1-0.1-1.6-0.3c-0.5-0.2-0.9-0.5-1.3-0.9
		s-0.7-0.8-0.9-1.3C239.5-238.1,239.4-238.6,239.4-239.2z"/>
	<path class="st12" d="M251.9-258.1c1.5-1.4,3.3-2.4,5.1-3.1c1.9-0.7,3.9-1,6.1-1c1.6,0,3,0.3,4.2,0.8s2.3,1.2,3.1,2.1
		c0.9,0.9,1.5,2,2,3.2c0.5,1.3,0.7,2.6,0.7,4.1v16.5h-3.2c-0.7,0-1.2-0.1-1.5-0.3c-0.3-0.2-0.6-0.6-0.9-1.2l-0.6-1.7
		c-0.7,0.6-1.3,1.1-1.9,1.5c-0.6,0.4-1.3,0.8-1.9,1.1c-0.7,0.3-1.4,0.5-2.1,0.7c-0.8,0.2-1.6,0.2-2.5,0.2c-1.2,0-2.2-0.2-3.2-0.5
		c-1-0.3-1.8-0.8-2.5-1.4c-0.7-0.6-1.2-1.4-1.6-2.3c-0.4-0.9-0.6-1.9-0.6-3.1c0-1,0.2-1.9,0.7-2.9c0.5-1,1.3-1.8,2.5-2.6
		c1.2-0.8,2.8-1.4,4.8-2c2-0.5,4.5-0.8,7.5-0.9v-1.4c0-1.6-0.3-2.9-1-3.6c-0.7-0.8-1.7-1.2-3-1.2c-1,0-1.8,0.1-2.4,0.3
		c-0.6,0.2-1.2,0.5-1.7,0.7c-0.5,0.3-0.9,0.5-1.4,0.7c-0.4,0.2-0.9,0.3-1.5,0.3c-0.5,0-0.9-0.1-1.2-0.4c-0.3-0.2-0.6-0.5-0.8-0.9
		L251.9-258.1z M266.3-246.5c-1.7,0.1-3.1,0.2-4.3,0.4c-1.1,0.2-2,0.5-2.7,0.8c-0.7,0.3-1.1,0.7-1.4,1.2s-0.4,0.9-0.4,1.4
		c0,1,0.3,1.7,0.9,2.2c0.6,0.4,1.4,0.6,2.4,0.6c1.2,0,2.2-0.2,3-0.6s1.7-1.1,2.6-2V-246.5z"/>
	<path class="st12" d="M282.6-269.3c0,0.6-0.1,1.1-0.4,1.7c-0.2,0.5-0.6,1-1,1.4c-0.4,0.4-0.9,0.7-1.4,0.9c-0.5,0.2-1.1,0.3-1.7,0.3
		c-0.6,0-1.1-0.1-1.6-0.3c-0.5-0.2-1-0.5-1.4-0.9c-0.4-0.4-0.7-0.8-0.9-1.4c-0.2-0.5-0.3-1.1-0.3-1.7c0-0.6,0.1-1.2,0.3-1.7
		c0.2-0.5,0.5-1,0.9-1.4c0.4-0.4,0.8-0.7,1.4-0.9c0.5-0.2,1.1-0.3,1.6-0.3c0.6,0,1.2,0.1,1.7,0.3c0.5,0.2,1,0.5,1.4,0.9
		c0.4,0.4,0.7,0.8,1,1.4S282.6-269.8,282.6-269.3z M281.8-261.8v26.3h-7v-26.3H281.8z"/>
	<path class="st12" d="M148.7-272.5l-11.5,37h-6.9l-7.6-24.2c-0.1-0.3-0.2-0.7-0.4-1.1c-0.1-0.4-0.2-0.8-0.3-1.3
		c-0.1,0.5-0.2,0.9-0.3,1.3c-0.1,0.4-0.2,0.8-0.4,1.1l-7.6,24.2h-6.9l-11.4-37h6.4c0.7,0,1.2,0.2,1.7,0.5c0.5,0.3,0.7,0.7,0.9,1.2
		l5.7,20.8c0.1,0.6,0.3,1.2,0.4,1.9c0.1,0.7,0.3,1.4,0.4,2.1c0.2-0.8,0.3-1.5,0.5-2.1c0.2-0.7,0.4-1.3,0.6-1.9l6.7-20.8
		c0.1-0.4,0.4-0.8,0.9-1.2c0.5-0.3,1-0.5,1.6-0.5h2.2c0.7,0,1.2,0.2,1.6,0.5s0.7,0.7,0.9,1.2l6.7,20.8c0.2,0.5,0.4,1.1,0.6,1.8
		c0.2,0.6,0.3,1.3,0.5,2c0.1-0.7,0.3-1.4,0.4-2c0.1-0.6,0.3-1.2,0.4-1.8l5.7-20.8c0.1-0.4,0.4-0.8,0.9-1.2c0.5-0.3,1-0.5,1.7-0.5
		H148.7z"/>
</g>
<g>
	<line class="st13" x1="520.7" y1="-383.4" x2="614.5" y2="-383.4"/>
	<line class="st13" x1="503.1" y1="-377.2" x2="503.1" y2="-283.4"/>
	<line class="st13" x1="633.4" y1="-377.2" x2="633.4" y2="-283.4"/>
	<path class="st5" d="M527.6-383.4l-12.3,12.3c-6.8,6.8-17.7,6.8-24.5,0l0,0c-6.8-6.8-6.8-17.7,0-24.5l0,0c6.8-6.8,17.7-6.8,24.5,0
		L527.6-383.4z"/>
	<path class="st5" d="M608.9-383.4l12.3-12.3c6.8-6.8,17.7-6.8,24.5,0l0,0c6.8,6.8,6.8,17.7,0,24.5l0,0c-6.8,6.8-17.7,6.8-24.5,0
		L608.9-383.4z"/>
	<line class="st13" x1="568.3" y1="-377.2" x2="568.3" y2="-283.4"/>
	<circle class="st5" cx="568.3" cy="-383.4" r="17.3"/>
	<path class="st1" d="M527.6-336.7l-12.3,12.3c-6.8,6.8-17.7,6.8-24.5,0h0c-6.8-6.8-6.8-17.7,0-24.5l0,0c6.8-6.8,17.7-6.8,24.5,0
		L527.6-336.7z"/>
	<path class="st1" d="M608.9-336.7l12.3-12.3c6.8-6.8,17.7-6.8,24.5,0l0,0c6.8,6.8,6.8,17.7,0,24.5h0c-6.8,6.8-17.7,6.8-24.5,0
		L608.9-336.7z"/>
	<line class="st13" x1="520.7" y1="-336.7" x2="614.5" y2="-336.7"/>
	<circle class="st5" cx="568.3" cy="-336.7" r="17.3"/>
	<path class="st1" d="M527.6-289.4l-12.3,12.3c-6.8,6.8-17.7,6.8-24.5,0l0,0c-6.8-6.8-6.8-17.7,0-24.5h0c6.8-6.8,17.7-6.8,24.5,0
		L527.6-289.4z"/>
	<path class="st1" d="M608.9-289.4l12.3-12.3c6.8-6.8,17.7-6.8,24.5,0h0c6.8,6.8,6.8,17.7,0,24.5l0,0c-6.8,6.8-17.7,6.8-24.5,0
		L608.9-289.4z"/>
	<line class="st13" x1="520.7" y1="-289.4" x2="614.5" y2="-289.4"/>
	<circle class="st1" cx="568.3" cy="-289.4" r="17.3"/>
</g>
<g>
	<line class="st13" x1="-1327.3" y1="88.9" x2="-1252.1" y2="88.9"/>
	<line class="st13" x1="-1341.4" y1="93.9" x2="-1341.4" y2="169.1"/>
	<line class="st13" x1="-1236.9" y1="93.9" x2="-1236.9" y2="169.1"/>
	<path class="st1" d="M-1321.8,88.9l-9.8,9.8c-5.4,5.4-14.2,5.4-19.7,0v0c-5.4-5.4-5.4-14.2,0-19.7v0c5.4-5.4,14.2-5.4,19.7,0
		L-1321.8,88.9z"/>
	<path class="st1" d="M-1256.6,88.9l9.8-9.8c5.4-5.4,14.2-5.4,19.7,0v0c5.4,5.4,5.4,14.2,0,19.7v0c-5.4,5.4-14.2,5.4-19.7,0
		L-1256.6,88.9z"/>
	<line class="st13" x1="-1289.2" y1="93.9" x2="-1289.2" y2="169.1"/>
	<circle class="st5" cx="-1289.2" cy="88.9" r="13.9"/>
	<path class="st1" d="M-1321.8,126.3l-9.8,9.8c-5.4,5.4-14.2,5.4-19.7,0v0c-5.4-5.4-5.4-14.2,0-19.7v0c5.4-5.4,14.2-5.4,19.7,0
		L-1321.8,126.3z"/>
	<path class="st1" d="M-1256.6,126.3l9.8-9.8c5.4-5.4,14.2-5.4,19.7,0v0c5.4,5.4,5.4,14.2,0,19.7v0c-5.4,5.4-14.2,5.4-19.7,0
		L-1256.6,126.3z"/>
	<line class="st13" x1="-1327.3" y1="126.3" x2="-1252.1" y2="126.3"/>
	<circle class="st5" cx="-1289.2" cy="126.3" r="13.9"/>
	<path class="st1" d="M-1321.8,164.3l-9.8,9.8c-5.4,5.4-14.2,5.4-19.7,0v0c-5.4-5.4-5.4-14.2,0-19.7v0c5.4-5.4,14.2-5.4,19.7,0
		L-1321.8,164.3z"/>
	<path class="st1" d="M-1256.6,164.3l9.8-9.8c5.4-5.4,14.2-5.4,19.7,0v0c5.4,5.4,5.4,14.2,0,19.7v0c-5.4,5.4-14.2,5.4-19.7,0
		L-1256.6,164.3z"/>
	<line class="st13" x1="-1327.3" y1="164.3" x2="-1252.1" y2="164.3"/>
	<circle class="st1" cx="-1289.2" cy="164.3" r="13.9"/>
</g>
<line class="st14" x1="-713.9" y1="17.3" x2="-673.5" y2="17.3"/>
<line class="st14" x1="-721.4" y1="20" x2="-721.4" y2="60.3"/>
<g>
	
		<image style="overflow:visible;" width="327" height="306" xlink:href="1A81636E.png"  transform="matrix(0.24 0 0 0.24 -760.6719 -11.9646)">
	</image>
</g>
<g>
	
		<image style="overflow:visible;" width="327" height="306" xlink:href="1A81636F.png"  transform="matrix(0.24 0 0 0.24 -760.6719 8.1391)">
	</image>
</g>
<line class="st14" x1="-665.4" y1="20" x2="-665.4" y2="60.3"/>
<path class="st0" d="M-710.9,17.3l-5.3,5.3c-2.9,2.9-7.6,2.9-10.5,0v0c-2.9-2.9-2.9-7.6,0-10.5v0c2.9-2.9,7.6-2.9,10.5,0
	L-710.9,17.3z"/>
<g>
	
		<image style="overflow:visible;" width="327" height="306" xlink:href="1A816374.png"  transform="matrix(0.24 0 0 0.24 -704.5897 -11.9646)">
	</image>
</g>
<path class="st0" d="M-675.9,17.3l5.3-5.3c2.9-2.9,7.6-2.9,10.5,0v0c2.9,2.9,2.9,7.6,0,10.5v0c-2.9,2.9-7.6,2.9-10.5,0L-675.9,17.3z
	"/>
<line class="st14" x1="-693.4" y1="20" x2="-693.4" y2="60.3"/>
<g>
	
		<image style="overflow:visible;" width="327" height="306" xlink:href="1A816375.png"  transform="matrix(0.24 0 0 0.24 -704.5801 8.1391)">
	</image>
</g>
<g>
	
		<image style="overflow:visible;" width="327" height="306" xlink:href="1A816376.png"  transform="matrix(0.24 0 0 0.24 -732.626 8.1391)">
	</image>
</g>
<g>
	
		<image style="overflow:visible;" width="327" height="306" xlink:href="1A81637B.png"  transform="matrix(0.24 0 0 0.24 -732.9075 -11.9646)">
	</image>
</g>
<circle class="st5" cx="-693.4" cy="17.3" r="7.5"/>
<line class="st14" x1="-713.9" y1="37.4" x2="-673.5" y2="37.4"/>
<path class="st0" d="M-710.9,37.4l-5.3,5.3c-2.9,2.9-7.6,2.9-10.5,0v0c-2.9-2.9-2.9-7.6,0-10.5v0c2.9-2.9,7.6-2.9,10.5,0
	L-710.9,37.4z"/>
<path class="st0" d="M-675.9,37.4l5.3-5.3c2.9-2.9,7.6-2.9,10.5,0v0c2.9,2.9,2.9,7.6,0,10.5v0c-2.9,2.9-7.6,2.9-10.5,0L-675.9,37.4z
	"/>
<circle class="st5" cx="-693.4" cy="37.4" r="7.5"/>
<line class="st14" x1="-713.9" y1="57.8" x2="-673.5" y2="57.8"/>
<path class="st0" d="M-710.9,57.8l-5.3,5.3c-2.9,2.9-7.6,2.9-10.5,0v0c-2.9-2.9-2.9-7.6,0-10.5v0c2.9-2.9,7.6-2.9,10.5,0
	L-710.9,57.8z"/>
<path class="st0" d="M-675.9,57.8l5.3-5.3c2.9-2.9,7.6-2.9,10.5,0v0c2.9,2.9,2.9,7.6,0,10.5v0c-2.9,2.9-7.6,2.9-10.5,0L-675.9,57.8z
	"/>
<circle class="st0" cx="-693.4" cy="57.8" r="7.5"/>
<g>
	<line class="st15" x1="155.1" y1="-392.1" x2="227.5" y2="-392.1"/>
	<line class="st13" x1="155.1" y1="-354.3" x2="227.5" y2="-354.3"/>
	<line class="st13" x1="158.9" y1="-315.7" x2="158.9" y2="-392.1"/>
	<line class="st13" x1="219.1" y1="-315.7" x2="219.1" y2="-392.1"/>
	<line class="st13" x1="189" y1="-353.2" x2="189" y2="-319.7"/>
	<line class="st15" x1="189" y1="-389.4" x2="189" y2="-355.9"/>
	<line class="st13" x1="155.1" y1="-316.6" x2="227.5" y2="-316.6"/>
	<path class="st4" d="M151.2-383.9L151.2-383.9c-4.5-4.5-4.5-11.9,0-16.4l0,0c4.5-4.5,11.9-4.5,16.4,0l8.2,8.2l-8.2,8.2
		C163-379.4,155.7-379.4,151.2-383.9z"/>
	<path class="st4" d="M226.9-400.3L226.9-400.3c4.5,4.5,4.5,11.9,0,16.4h0c-4.5,4.5-11.9,4.5-16.4,0l-8.2-8.2l8.2-8.2
		C215-404.8,222.3-404.8,226.9-400.3z"/>
	<path class="st4" d="M197.2-383.9l-8.2,8.2l-8.2-8.2c-4.5-4.5-4.5-11.9,0-16.4l0,0c4.5-4.5,11.9-4.5,16.4,0l0,0
		C201.7-395.8,201.7-388.4,197.2-383.9z"/>
	<linearGradient id="SVGID_3_" gradientUnits="userSpaceOnUse" x1="147.7612" y1="-354.3481" x2="175.7147" y2="-354.3481">
		<stop  offset="0" style="stop-color:#406EFF"/>
		<stop  offset="1" style="stop-color:#4092FF"/>
	</linearGradient>
	<path class="st16" d="M151.2-346.2L151.2-346.2c-4.5-4.5-4.5-11.9,0-16.4h0c4.5-4.5,11.9-4.5,16.4,0l8.2,8.2l-8.2,8.2
		C163-341.6,155.7-341.6,151.2-346.2z"/>
	<linearGradient id="SVGID_4_" gradientUnits="userSpaceOnUse" x1="202.2923" y1="-354.3481" x2="230.2458" y2="-354.3481">
		<stop  offset="0" style="stop-color:#406EFF"/>
		<stop  offset="1" style="stop-color:#4092FF"/>
	</linearGradient>
	<path class="st17" d="M226.9-362.5L226.9-362.5c4.5,4.5,4.5,11.9,0,16.4l0,0c-4.5,4.5-11.9,4.5-16.4,0l-8.2-8.2l8.2-8.2
		C215-367.1,222.3-367.1,226.9-362.5z"/>
	<path class="st4" d="M180.8-362.5L180.8-362.5c4.5-4.5,11.9-4.5,16.4,0h0c4.5,4.5,4.5,11.9,0,16.4l0,0c-4.5,4.5-11.9,4.5-16.4,0
		l0,0C176.3-350.7,176.3-358,180.8-362.5z"/>
	<linearGradient id="SVGID_5_" gradientUnits="userSpaceOnUse" x1="147.7612" y1="-316.6066" x2="175.7147" y2="-316.6066">
		<stop  offset="0" style="stop-color:#406EFF"/>
		<stop  offset="1" style="stop-color:#4092FF"/>
	</linearGradient>
	<path class="st18" d="M151.2-308.4L151.2-308.4c-4.5-4.5-4.5-11.9,0-16.4l0,0c4.5-4.5,11.9-4.5,16.4,0l8.2,8.2l-8.2,8.2
		C163-303.9,155.7-303.9,151.2-308.4z"/>
	<linearGradient id="SVGID_6_" gradientUnits="userSpaceOnUse" x1="202.2923" y1="-316.6066" x2="230.2458" y2="-316.6066">
		<stop  offset="0" style="stop-color:#406EFF"/>
		<stop  offset="1" style="stop-color:#4092FF"/>
	</linearGradient>
	<path class="st19" d="M226.9-324.8L226.9-324.8c4.5,4.5,4.5,11.9,0,16.4h0c-4.5,4.5-11.9,4.5-16.4,0l-8.2-8.2l8.2-8.2
		C215-329.3,222.3-329.3,226.9-324.8z"/>
	<linearGradient id="SVGID_7_" gradientUnits="userSpaceOnUse" x1="177.4248" y1="-319.0046" x2="200.5822" y2="-319.0046">
		<stop  offset="0" style="stop-color:#406EFF"/>
		<stop  offset="1" style="stop-color:#4092FF"/>
	</linearGradient>
	<path class="st20" d="M180.8-324.8l8.2-8.2l8.2,8.2c4.5,4.5,4.5,11.9,0,16.4h0c-4.5,4.5-11.9,4.5-16.4,0h0
		C176.3-312.9,176.3-320.3,180.8-324.8z"/>
</g>
<path class="st21" d="M-662-478.7h-8.4c-4.2,0-7.6,3.4-7.6,7.6v78.7c0,4.2,3.4,7.6,7.6,7.6h8.4"/>
<path class="st21" d="M-639.8-384.7h8.4c4.2,0,7.6-3.4,7.6-7.6v-78.7c0-4.2-3.4-7.6-7.6-7.6h-8.4"/>
<rect x="-622.2" y="-457.1" transform="matrix(-1 -1.224647e-16 1.224647e-16 -1 -1234.3306 -907.1242)" class="st1" width="10" height="7"/>
<rect x="-658.8" y="-405" transform="matrix(-1.836970e-16 1 -1 -1.836970e-16 -1051.4429 248.3831)" class="st1" width="17.7" height="7"/>
<rect x="-685.9" y="-417.4" transform="matrix(-1 -1.224647e-16 1.224647e-16 -1 -1361.8595 -827.8459)" class="st1" width="10" height="7"/>
<circle class="st22" cx="-83.3" cy="-330.8" r="2"/>
<circle class="st22" cx="-44.2" cy="-345.8" r="2"/>
<circle class="st22" cx="4.3" cy="-328.8" r="2"/>
<circle class="st22" cx="38" cy="-315.7" r="2"/>
<circle class="st22" cx="46.6" cy="-366.8" r="2"/>
<circle class="st22" cx="46.6" cy="-415.3" r="2"/>
<circle class="st22" cx="-87.3" cy="-375.5" r="2"/>
<circle class="st22" cx="-55.8" cy="-326.8" r="2"/>
<circle class="st22" cx="-72.2" cy="-313.7" r="2"/>
<circle class="st22" cx="38" cy="-338.7" r="2"/>
<circle class="st22" cx="-6.9" cy="-374.3" r="2"/>
<circle class="st22" cx="31.8" cy="-396.7" r="2"/>
<circle class="st22" cx="-40.2" cy="-392.7" r="2"/>
<circle class="st22" cx="-68.3" cy="-364.9" r="2"/>
<circle class="st22" cx="-79.4" cy="-400.6" r="2"/>
<circle class="st22" cx="-57.8" cy="-417.3" r="2"/>
<circle class="st22" cx="-15.3" cy="-402.6" r="2"/>
<circle class="st22" cx="14.2" cy="-419.2" r="2"/>
<circle class="st22" cx="20.6" cy="-366.8" r="2"/>
<circle class="st22" cx="40" cy="-440.7" r="2"/>
<circle class="st22" cx="-15.3" cy="-438.7" r="2"/>
<circle class="st22" cx="-85.3" cy="-434.8" r="2"/>
<polygon class="st22" points="-83.3,-330.8 -44.2,-345.8 -68.3,-362.9 "/>
<polygon class="st22" points="-44.2,-345.8 -6.9,-374.3 4.3,-328.8 38,-338.7 20.6,-366.8 "/>
<polygon class="st22" points="20.6,-366.8 31.8,-396.7 -6.9,-374.3 -15.3,-402.6 -40.2,-392.7 -57.8,-417.3 -79.4,-400.6 
	-68.3,-364.9 -40.2,-392.7 -44.2,-345.8 4.3,-326.8 38,-313.7 38,-336.7 48.6,-366.8 "/>
<polyline class="st22" points="-85.3,-434.8 -57.8,-417.3 -15.3,-438.7 -85.3,-434.8 -79.4,-400.6 -40.2,-392.7 -15.3,-438.7 
	-15.3,-402.6 14.2,-419.2 -15.3,-438.7 40,-440.7 31.8,-396.7 14.2,-419.2 -6.9,-374.3 "/>
<polyline class="st22" points="-55.8,-324.9 -83.3,-330.8 -72.2,-313.7 -53.8,-326.8 -44.2,-343.9 "/>
<polyline class="st22" points="31.8,-396.7 46.6,-413.3 46.6,-364.9 "/>
<line class="st22" x1="46.6" y1="-415.3" x2="42" y2="-440.7"/>
<polyline class="st22" points="-83.3,-330.8 -87.3,-373.5 -68.3,-362.9 "/>
<polyline class="st22" points="-81.4,-400.6 -87.3,-377.5 -87.3,-434.8 "/>
<g>
	<path d="M-575.5,61.2c-2.5,3.9-6.7,6.6-11.7,6.6c-9.9,0-16.3-7.4-16.3-17.6V14c0-1,0.5-1.5,1.5-1.5h6.2c1,0,1.5,0.5,1.5,1.5v36.5
		c0,5.1,2.6,8.4,7.1,8.4s7-3.4,7-8.4V14c0-1,0.5-1.5,1.5-1.5h6.3c0.9,0,1.4,0.5,1.4,1.5v36.5c0,5.1,2.6,8.4,7.1,8.4
		c4.5,0,7-3.4,7-8.4V14c0-1,0.5-1.5,1.5-1.5h6.3c0.9,0,1.4,0.5,1.4,1.5v36.2c0,10.3-6.4,17.6-16.2,17.6
		C-568.9,67.8-573,65.1-575.5,61.2z"/>
	<path d="M-529.6,12.4c1,0,1.5,0.5,1.5,1.5v36.5c0,5.1,2.8,8.6,7.6,8.6s7.6-3.5,7.6-8.6V14c0-1,0.5-1.5,1.5-1.5h6.3
		c1,0,1.5,0.5,1.5,1.5v36.2c0,10.3-6.8,17.6-16.9,17.6c-10.1,0-16.9-7.4-16.9-17.6V14c0-1,0.5-1.5,1.5-1.5H-529.6z"/>
	<path d="M-494.4,65.1V31.2c0-11.7,7.6-18.9,18.5-18.9h4c0.9,0,1.4,0.5,1.4,1.5v5.8c0,0.9-0.5,1.4-1.4,1.4h-3.9
		c-5.6,0-9.3,3.6-9.3,9.4v34.6c0,1-0.5,1.5-1.5,1.5h-6.3C-493.8,66.6-494.4,66-494.4,65.1z"/>
	<path d="M-430.2,51.4v13.6c0,1-0.5,1.5-1.4,1.5h-6.4c-0.9,0-1.4-0.5-1.4-1.5v-14c0-4.9-3.4-8-8.2-8h-6.5v22c0,1-0.5,1.5-1.5,1.5
		h-6.3c-1,0-1.5-0.5-1.5-1.5V-7.8c0-0.9,0.5-1.4,1.5-1.4h6.3c1,0,1.5,0.5,1.5,1.4v42.1h5.2l9.9-20.8c0.4-0.8,1-1.1,1.7-1.1h6.7
		c1.1,0,1.7,0.6,1.3,1.7l-10.7,22C-434.1,38.5-430.2,44.2-430.2,51.4z"/>
	<path d="M-422.6,50V28.8c0.1-10.3,6.8-17.4,17.2-17.4c10.2-0.1,17.3,7.1,17.3,17.1c0,9.5-6.9,16.3-17.2,16.3h-8v5.6
		c0,5,2.9,8.4,7.9,8.4c4.4,0,7.4-3.2,7.7-8c0.1-1,0.6-1.4,1.5-1.4h6.4c0.9,0,1.4,0.5,1.4,1.4c-0.5,10.1-7.4,16.8-17.1,16.8
		C-415.7,67.7-422.6,60.6-422.6,50z M-405.3,36.4c5,0,7.9-3.1,7.9-7.7c0-5.2-3-8.6-8-8.6c-5.1,0-7.9,3.4-7.9,8.6v7.7H-405.3z"/>
	<path d="M-379.8,65.1V31.2c0-11.7,7.6-18.9,18.5-18.9h4c0.9,0,1.4,0.5,1.4,1.5v5.8c0,0.9-0.5,1.4-1.4,1.4h-3.9
		c-5.6,0-9.3,3.6-9.3,9.4v34.6c0,1-0.5,1.5-1.5,1.5h-6.3C-379.3,66.6-379.8,66-379.8,65.1z"/>
	<path class="st1" d="M-360.1,61.6c0-3.6,2.6-6.1,6.1-6.1c3.5,0,6.2,2.5,6.2,6.1c0,3.5-2.7,6.1-6.2,6.1
		C-357.5,67.7-360.1,65.1-360.1,61.6z"/>
	<path d="M-343,50.2c0-9,6.9-15.9,17.1-15.9h8.1v-6c0-4.9-2.9-8.2-7.8-8.2c-4.5,0-7,3-7.4,7.5c-0.1,1-0.5,1.3-1.5,1.3h-6.3
		c-0.9,0-1.4-0.6-1.4-1.5c0.6-9.4,7-16.1,16.7-16.1c10.3,0,16.9,7.4,16.9,17.5v21.8c0,10-6.5,17.1-16.9,17.1
		C-336,67.7-343,60.4-343,50.2z M-317.8,50.6v-7.9h-7.8c-5.1,0-8.1,3.4-8.1,7.6c0,5.2,3,8.6,8.1,8.6
		C-320.6,58.8-317.8,55.5-317.8,50.6z"/>
	<path d="M-299.3,5.2c0-3,2.3-5.2,5.5-5.2c3.1,0,5.6,2.2,5.6,5.2c0,2.7-2.5,5.1-5.6,5.1C-297,10.3-299.3,8.1-299.3,5.2z
		 M-298.4,65.2V17.9c0-0.8,0.5-1.3,1.5-1.3h6.3c1,0,1.5,0.5,1.5,1.3v47.3c0,0.9-0.5,1.4-1.5,1.4h-6.3
		C-297.9,66.6-298.4,66.1-298.4,65.2z"/>
</g>
<g>
	<path d="M-1283.7,653.9c-2.5,3.9-6.7,6.6-11.7,6.6c-9.9,0-16.3-7.4-16.3-17.6v-36.2c0-1,0.5-1.5,1.5-1.5h6.2c1,0,1.5,0.5,1.5,1.5
		v36.5c0,5.1,2.6,8.4,7.1,8.4c4.5,0,7-3.4,7-8.4v-36.5c0-1,0.5-1.5,1.5-1.5h6.3c0.9,0,1.4,0.5,1.4,1.5v36.5c0,5.1,2.6,8.4,7.1,8.4
		c4.5,0,7-3.4,7-8.4v-36.5c0-1,0.5-1.5,1.5-1.5h6.3c0.9,0,1.4,0.5,1.4,1.5v36.2c0,10.3-6.4,17.6-16.2,17.6
		C-1277.1,660.5-1281.2,657.8-1283.7,653.9z"/>
	<path d="M-1237.8,605.1c1,0,1.5,0.5,1.5,1.5v36.5c0,5.1,2.8,8.6,7.6,8.6s7.6-3.5,7.6-8.6v-36.5c0-1,0.5-1.5,1.5-1.5h6.3
		c1,0,1.5,0.5,1.5,1.5v36.2c0,10.3-6.8,17.6-16.9,17.6c-10.1,0-16.9-7.4-16.9-17.6v-36.2c0-1,0.5-1.5,1.5-1.5H-1237.8z"/>
	<path d="M-1202.5,657.8v-33.9c0-11.7,7.6-18.9,18.5-18.9h4c0.9,0,1.4,0.5,1.4,1.5v5.8c0,0.9-0.5,1.4-1.4,1.4h-3.9
		c-5.6,0-9.3,3.6-9.3,9.4v34.6c0,1-0.5,1.5-1.5,1.5h-6.3C-1202,659.3-1202.5,658.7-1202.5,657.8z"/>
	<path d="M-1138.3,644.1v13.6c0,1-0.5,1.5-1.4,1.5h-6.4c-0.9,0-1.4-0.5-1.4-1.5v-14c0-4.9-3.4-8-8.2-8h-6.5v22c0,1-0.5,1.5-1.5,1.5
		h-6.3c-1,0-1.5-0.5-1.5-1.5v-72.9c0-0.9,0.5-1.4,1.5-1.4h6.3c1,0,1.5,0.5,1.5,1.4V627h5.2l9.9-20.8c0.4-0.8,1-1.1,1.7-1.1h6.7
		c1.1,0,1.7,0.6,1.3,1.7l-10.7,22C-1142.2,631.2-1138.3,636.9-1138.3,644.1z"/>
	<path d="M-1130.8,642.7v-21.2c0.1-10.3,6.8-17.4,17.2-17.4c10.2-0.1,17.3,7.1,17.3,17.1c0,9.5-6.9,16.3-17.2,16.3h-8v5.6
		c0,5,2.9,8.4,7.9,8.4c4.4,0,7.4-3.2,7.7-8c0.1-1,0.6-1.4,1.5-1.4h6.4c0.9,0,1.4,0.5,1.4,1.4c-0.5,10.1-7.4,16.8-17.1,16.8
		C-1123.8,660.4-1130.8,653.3-1130.8,642.7z M-1113.4,629.1c5,0,7.9-3.1,7.9-7.7c0-5.2-3-8.6-8-8.6c-5.1,0-7.9,3.4-7.9,8.6v7.7
		H-1113.4z"/>
	<path d="M-1088,657.8v-33.9c0-11.7,7.6-18.9,18.5-18.9h4c0.9,0,1.4,0.5,1.4,1.5v5.8c0,0.9-0.5,1.4-1.4,1.4h-3.9
		c-5.6,0-9.3,3.6-9.3,9.4v34.6c0,1-0.5,1.5-1.5,1.5h-6.3C-1087.5,659.3-1088,658.7-1088,657.8z"/>
</g>
<path d="M-575.5-389.3c-2.5,3.9-6.7,6.6-11.7,6.6c-9.9,0-16.3-7.4-16.3-17.6v-36.2c0-1,0.5-1.5,1.5-1.5h6.2c1,0,1.5,0.5,1.5,1.5
	v36.5c0,5.1,2.6,8.4,7.1,8.4s7-3.4,7-8.4v-36.5c0-1,0.5-1.5,1.5-1.5h6.3c0.9,0,1.4,0.5,1.4,1.5v36.5c0,5.1,2.6,8.4,7.1,8.4
	c4.5,0,7-3.4,7-8.4v-36.5c0-1,0.5-1.5,1.5-1.5h6.3c0.9,0,1.4,0.5,1.4,1.5v36.2c0,10.3-6.4,17.6-16.2,17.6
	C-568.9-382.7-573-385.4-575.5-389.3z"/>
<path d="M-529.6-438.1c1,0,1.5,0.5,1.5,1.5v36.5c0,5.1,2.8,8.6,7.6,8.6s7.6-3.5,7.6-8.6v-36.5c0-1,0.5-1.5,1.5-1.5h6.3
	c1,0,1.5,0.5,1.5,1.5v36.2c0,10.3-6.8,17.6-16.9,17.6c-10.1,0-16.9-7.4-16.9-17.6v-36.2c0-1,0.5-1.5,1.5-1.5H-529.6z"/>
<path d="M-494.4-385.4v-33.9c0-11.7,7.6-18.9,18.5-18.9h4c0.9,0,1.4,0.5,1.4,1.5v5.8c0,0.9-0.5,1.4-1.4,1.4h-3.9
	c-5.6,0-9.3,3.6-9.3,9.4v34.6c0,1-0.5,1.5-1.5,1.5h-6.3C-493.8-383.9-494.4-384.5-494.4-385.4z"/>
<path d="M-430.2-399.1v13.6c0,1-0.5,1.5-1.4,1.5h-6.4c-0.9,0-1.4-0.5-1.4-1.5v-14c0-4.9-3.4-8-8.2-8h-6.5v22c0,1-0.5,1.5-1.5,1.5
	h-6.3c-1,0-1.5-0.5-1.5-1.5v-72.9c0-0.9,0.5-1.4,1.5-1.4h6.3c1,0,1.5,0.5,1.5,1.4v42.1h5.2l9.9-20.8c0.4-0.8,1-1.1,1.7-1.1h6.7
	c1.1,0,1.7,0.6,1.3,1.7l-10.7,22C-434.1-412-430.2-406.3-430.2-399.1z"/>
<path d="M-422.6-400.5v-21.2c0.1-10.3,6.8-17.4,17.2-17.4c10.2-0.1,17.3,7.1,17.3,17.1c0,9.5-6.9,16.3-17.2,16.3h-8v5.6
	c0,5,2.9,8.4,7.9,8.4c4.4,0,7.4-3.2,7.7-8c0.1-1,0.6-1.4,1.5-1.4h6.4c0.9,0,1.4,0.5,1.4,1.4c-0.5,10.1-7.4,16.8-17.1,16.8
	C-415.7-382.8-422.6-389.9-422.6-400.5z M-405.3-414.1c5,0,7.9-3.1,7.9-7.7c0-5.2-3-8.6-8-8.6c-5.1,0-7.9,3.4-7.9,8.6v7.7H-405.3z"
	/>
<path d="M-379.8-385.4v-33.9c0-11.7,7.6-18.9,18.5-18.9h4c0.9,0,1.4,0.5,1.4,1.5v5.8c0,0.9-0.5,1.4-1.4,1.4h-3.9
	c-5.6,0-9.3,3.6-9.3,9.4v34.6c0,1-0.5,1.5-1.5,1.5h-6.3C-379.3-383.9-379.8-384.5-379.8-385.4z"/>
<path class="st1" d="M-360.1-388.9c0-3.6,2.6-6.1,6.1-6.1c3.5,0,6.2,2.5,6.2,6.1c0,3.5-2.7,6.1-6.2,6.1
	C-357.5-382.8-360.1-385.4-360.1-388.9z"/>
<path d="M-343-400.3c0-9,6.9-15.9,17.1-15.9h8.1v-6c0-4.9-2.9-8.2-7.8-8.2c-4.5,0-7,3-7.4,7.5c-0.1,1-0.5,1.3-1.5,1.3h-6.3
	c-0.9,0-1.4-0.6-1.4-1.5c0.6-9.4,7-16.1,16.7-16.1c10.3,0,16.9,7.4,16.9,17.5v21.8c0,10-6.5,17.1-16.9,17.1
	C-336-382.8-343-390.1-343-400.3z M-317.8-399.9v-7.9h-7.8c-5.1,0-8.1,3.4-8.1,7.6c0,5.2,3,8.6,8.1,8.6
	C-320.6-391.7-317.8-395-317.8-399.9z"/>
<path d="M-299.3-445.3c0-3,2.3-5.2,5.5-5.2c3.1,0,5.6,2.2,5.6,5.2c0,2.7-2.5,5.1-5.6,5.1C-297-440.2-299.3-442.4-299.3-445.3z
	 M-298.4-385.3v-47.3c0-0.8,0.5-1.3,1.5-1.3h6.3c1,0,1.5,0.5,1.5,1.3v47.3c0,0.9-0.5,1.4-1.5,1.4h-6.3
	C-297.9-383.9-298.4-384.4-298.4-385.3z"/>
<g>
	<path d="M-1170.5,148.6c-2.5,3.9-6.7,6.6-11.7,6.6c-9.9,0-16.3-7.4-16.3-17.6v-36.2c0-1,0.5-1.5,1.5-1.5h6.2c1,0,1.5,0.5,1.5,1.5
		v36.5c0,5.1,2.6,8.4,7.1,8.4c4.5,0,7-3.4,7-8.4v-36.5c0-1,0.5-1.5,1.5-1.5h6.3c0.9,0,1.4,0.5,1.4,1.5v36.5c0,5.1,2.6,8.4,7.1,8.4
		c4.5,0,7-3.4,7-8.4v-36.5c0-1,0.5-1.5,1.5-1.5h6.3c0.9,0,1.4,0.5,1.4,1.5v36.2c0,10.3-6.4,17.6-16.2,17.6
		C-1163.9,155.2-1168,152.5-1170.5,148.6z"/>
	<path d="M-1124.6,99.9c1,0,1.5,0.5,1.5,1.5v36.5c0,5.1,2.8,8.6,7.6,8.6c4.8,0,7.6-3.5,7.6-8.6v-36.5c0-1,0.5-1.5,1.5-1.5h6.3
		c1,0,1.5,0.5,1.5,1.5v36.2c0,10.3-6.8,17.6-16.9,17.6c-10.1,0-16.9-7.4-16.9-17.6v-36.2c0-1,0.5-1.5,1.5-1.5H-1124.6z"/>
	<path d="M-1089.3,152.5v-33.9c0-11.7,7.6-18.9,18.5-18.9h4c0.9,0,1.4,0.5,1.4,1.5v5.8c0,0.9-0.5,1.4-1.4,1.4h-3.9
		c-5.6,0-9.3,3.6-9.3,9.4v34.6c0,1-0.5,1.5-1.5,1.5h-6.3C-1088.8,154-1089.3,153.4-1089.3,152.5z"/>
	<path d="M-1025.1,138.8v13.6c0,1-0.5,1.5-1.4,1.5h-6.4c-0.9,0-1.4-0.5-1.4-1.5v-14c0-4.9-3.4-8-8.2-8h-6.5v22c0,1-0.5,1.5-1.5,1.5
		h-6.3c-1,0-1.5-0.5-1.5-1.5V79.6c0-0.9,0.5-1.4,1.5-1.4h6.3c1,0,1.5,0.5,1.5,1.4v42.1h5.2l9.9-20.8c0.4-0.8,1-1.1,1.7-1.1h6.7
		c1.1,0,1.7,0.6,1.3,1.7l-10.7,22C-1029,125.9-1025.1,131.6-1025.1,138.8z"/>
	<path d="M-1017.6,137.4v-21.2c0.1-10.3,6.8-17.4,17.2-17.4c10.2-0.1,17.3,7.1,17.3,17.1c0,9.5-6.9,16.3-17.2,16.3h-8v5.6
		c0,5,2.9,8.4,7.9,8.4c4.4,0,7.4-3.2,7.7-8c0.1-1,0.6-1.4,1.5-1.4h6.4c0.9,0,1.4,0.5,1.4,1.4c-0.5,10.1-7.4,16.8-17.1,16.8
		C-1010.6,155.1-1017.6,148-1017.6,137.4z M-1000.2,123.8c5,0,7.9-3.1,7.9-7.7c0-5.2-3-8.6-8-8.6c-5.1,0-7.9,3.4-7.9,8.6v7.7
		H-1000.2z"/>
	<path d="M-974.8,152.5v-33.9c0-11.7,7.6-18.9,18.5-18.9h4c0.9,0,1.4,0.5,1.4,1.5v5.8c0,0.9-0.5,1.4-1.4,1.4h-3.9
		c-5.6,0-9.3,3.6-9.3,9.4v34.6c0,1-0.5,1.5-1.5,1.5h-6.3C-974.3,154-974.8,153.4-974.8,152.5z"/>
	<path class="st1" d="M-955.1,149c0-3.6,2.6-6.1,6.1-6.1c3.5,0,6.2,2.5,6.2,6.1c0,3.5-2.7,6.1-6.2,6.1
		C-952.5,155.1-955.1,152.5-955.1,149z"/>
	<path d="M-938,137.6c0-9,6.9-15.9,17.1-15.9h8.1v-6c0-4.9-2.9-8.2-7.8-8.2c-4.5,0-7,3-7.4,7.5c-0.1,1-0.5,1.3-1.5,1.3h-6.3
		c-0.9,0-1.4-0.6-1.4-1.5c0.6-9.4,7-16.1,16.7-16.1c10.3,0,16.9,7.4,16.9,17.5V138c0,10-6.5,17.1-16.9,17.1
		C-931,155.1-938,147.8-938,137.6z M-912.8,138v-7.9h-7.8c-5.1,0-8.1,3.4-8.1,7.6c0,5.2,3,8.6,8.1,8.6
		C-915.6,146.2-912.8,142.9-912.8,138z"/>
	<path d="M-894.3,92.6c0-3,2.3-5.2,5.5-5.2c3.1,0,5.6,2.2,5.6,5.2c0,2.7-2.5,5.1-5.6,5.1C-892,97.7-894.3,95.5-894.3,92.6z
		 M-893.4,152.6v-47.3c0-0.8,0.5-1.3,1.5-1.3h6.3c1,0,1.5,0.5,1.5,1.3v47.3c0,0.9-0.5,1.4-1.5,1.4h-6.3
		C-892.9,154-893.4,153.5-893.4,152.6z"/>
</g>
<g>
	<path d="M-599.3,694c-1.2,1.9-3.2,3.1-5.6,3.1c-4.7,0-7.8-3.5-7.8-8.4v-17.2c0-0.5,0.3-0.7,0.7-0.7h2.9c0.5,0,0.7,0.3,0.7,0.7v17.4
		c0,2.4,1.2,4,3.4,4c2.2,0,3.4-1.6,3.4-4v-17.4c0-0.5,0.3-0.7,0.7-0.7h3c0.4,0,0.7,0.3,0.7,0.7v17.4c0,2.4,1.2,4,3.4,4
		c2.2,0,3.4-1.6,3.4-4v-17.4c0-0.5,0.3-0.7,0.7-0.7h3c0.4,0,0.7,0.3,0.7,0.7v17.2c0,4.9-3,8.4-7.7,8.4
		C-596.1,697.2-598.1,695.9-599.3,694z"/>
	<path d="M-577.4,670.8c0.5,0,0.7,0.3,0.7,0.7v17.4c0,2.4,1.3,4.1,3.6,4.1c2.3,0,3.6-1.7,3.6-4.1v-17.4c0-0.5,0.3-0.7,0.7-0.7h3
		c0.5,0,0.7,0.3,0.7,0.7v17.2c0,4.9-3.3,8.4-8.1,8.4c-4.8,0-8.1-3.5-8.1-8.4v-17.2c0-0.5,0.3-0.7,0.7-0.7H-577.4z"/>
	<path d="M-560.6,695.9v-16.2c0-5.6,3.6-9,8.8-9h1.9c0.4,0,0.7,0.3,0.7,0.7v2.8c0,0.4-0.3,0.7-0.7,0.7h-1.9c-2.7,0-4.4,1.7-4.4,4.5
		v16.5c0,0.5-0.3,0.7-0.7,0.7h-3C-560.3,696.6-560.6,696.3-560.6,695.9z"/>
	<path d="M-530,689.4v6.5c0,0.5-0.3,0.7-0.7,0.7h-3c-0.4,0-0.7-0.3-0.7-0.7v-6.7c0-2.3-1.6-3.8-3.9-3.8h-3.1v10.5
		c0,0.5-0.3,0.7-0.7,0.7h-3c-0.5,0-0.7-0.3-0.7-0.7v-34.7c0-0.4,0.3-0.7,0.7-0.7h3c0.5,0,0.7,0.3,0.7,0.7v20.1h2.5l4.7-9.9
		c0.2-0.4,0.5-0.5,0.8-0.5h3.2c0.5,0,0.8,0.3,0.6,0.8l-5.1,10.5C-531.8,683.2-530,685.9-530,689.4z"/>
	<path d="M-526.3,688.7v-10.1c0.1-4.9,3.3-8.3,8.2-8.3c4.9-0.1,8.3,3.4,8.3,8.2c0,4.5-3.3,7.8-8.2,7.8h-3.8v2.7c0,2.4,1.4,4,3.8,4
		c2.1,0,3.5-1.5,3.7-3.8c0.1-0.5,0.3-0.7,0.7-0.7h3c0.4,0,0.7,0.3,0.7,0.7c-0.3,4.8-3.5,8-8.2,8C-523,697.1-526.3,693.8-526.3,688.7
		z M-518.1,682.2c2.4,0,3.8-1.5,3.8-3.7c0-2.5-1.4-4.1-3.8-4.1c-2.4,0-3.8,1.6-3.8,4.1v3.7H-518.1z"/>
	<path d="M-506,695.9v-16.2c0-5.6,3.6-9,8.8-9h1.9c0.4,0,0.7,0.3,0.7,0.7v2.8c0,0.4-0.3,0.7-0.7,0.7h-1.9c-2.7,0-4.4,1.7-4.4,4.5
		v16.5c0,0.5-0.3,0.7-0.7,0.7h-3C-505.7,696.6-506,696.3-506,695.9z"/>
	<path class="st1" d="M-496.6,694.2c0-1.7,1.2-2.9,2.9-2.9c1.7,0,2.9,1.2,2.9,2.9c0,1.7-1.3,2.9-2.9,2.9
		C-495.3,697.1-496.6,695.9-496.6,694.2z"/>
	<path d="M-488.4,688.8c0-4.3,3.3-7.6,8.2-7.6h3.9v-2.8c0-2.3-1.4-3.9-3.7-3.9c-2.2,0-3.4,1.4-3.5,3.6c-0.1,0.5-0.3,0.6-0.7,0.6h-3
		c-0.4,0-0.7-0.3-0.7-0.7c0.3-4.5,3.4-7.7,7.9-7.7c4.9,0,8.1,3.5,8.1,8.4V689c0,4.7-3.1,8.2-8.1,8.2
		C-485,697.1-488.4,693.6-488.4,688.8z M-476.4,689v-3.8h-3.7c-2.4,0-3.9,1.6-3.9,3.6c0,2.5,1.4,4.1,3.9,4.1
		C-477.7,692.9-476.4,691.3-476.4,689z"/>
	<path d="M-467.6,667.3c0-1.4,1.1-2.5,2.6-2.5c1.5,0,2.7,1,2.7,2.5c0,1.3-1.2,2.4-2.7,2.4C-466.5,669.8-467.6,668.7-467.6,667.3z
		 M-467.1,695.9v-22.5c0-0.4,0.3-0.6,0.7-0.6h3c0.5,0,0.7,0.2,0.7,0.6v22.5c0,0.4-0.3,0.7-0.7,0.7h-3
		C-466.9,696.6-467.1,696.4-467.1,695.9z"/>
</g>
<path class="st23" d="M-432.9,600.2l33.8-56.1h-187.7l33.8,56.1C-525.7,645.4-460.1,645.4-432.9,600.2z"/>
<path class="st1" d="M-522,600.2l33.8-56.1h-187.7l33.8,56.1C-614.7,645.4-549.2,645.4-522,600.2z"/>
<circle class="st1" cx="-1197.9" cy="588.1" r="5"/>
<g>
	<polygon class="st1" points="-1197.9,593.1 -1311.7,588.1 -1197.9,583.1 	"/>
</g>
<rect x="-180.8" y="399.9" class="st0" width="656" height="469.5"/>
<path class="st1" d="M-1339,1185.9h-11.4l-6.3-69.4h11.9l4,45 M-1317.6,1185.9h-11.4l-6.3-34.7h11.9l4,22.5 M-1319.3,1160.3
	l15.4-43.8h12.6l-24.6,69.4h-10.6"/>
<path d="M-1284.5,1134.6h12.5l-3.6,26.2c-0.4,2.9-0.6,5.1-0.6,6.5c0,2.3,0.8,4.2,2.4,5.7c1.6,1.5,3.6,2.3,6.1,2.3c3.2,0,5.7-1,7.5-3
	c1.7-2,3-6,3.8-12.1l3.5-25.7h12.5l-3.7,27.6c-0.9,6.2-2.3,11-4.3,14.5c-2,3.4-4.7,6-8,7.9c-3.3,1.8-7.2,2.7-11.7,2.7
	c-6.3,0-11.3-1.8-15-5.4c-3.7-3.6-5.6-8.3-5.6-14.1c0-3.5,0.4-8,1.2-13.6L-1284.5,1134.6z"/>
<path d="M-1229.5,1134.6h11.2l-0.9,7c3.4-5.5,7.4-8.3,12.1-8.3c1.1,0,2.3,0.3,3.5,0.9l-4.6,11.5c-1-0.3-1.7-0.5-2.1-0.5
	c-2.5,0-4.6,1.4-6.6,4.3c-1.9,2.8-3.5,8.6-4.6,17.2l-2.5,19.3h-12.7L-1229.5,1134.6z"/>
<path d="M-1193,1114.8h12.4l-5.2,37.5l20.1-17.7h17.3l-25.9,22.9l22.7,28.4h-15.1l-20.2-25.1l-3.5,25.1h-12.4L-1193,1114.8z"/>
<path d="M-1108.3,1170.9l11.1,5.7c-2.5,3.3-5.8,5.8-9.9,7.7c-4.1,1.9-8.7,2.8-13.7,2.8c-7.8,0-14-2.2-18.5-6.6
	c-4.5-4.4-6.8-10.3-6.8-17.5c0-8.3,2.8-15.4,8.5-21.2c5.6-5.8,12.5-8.7,20.4-8.7c4.8,0,9.1,1.1,12.9,3.2c3.8,2.1,6.7,5.2,8.9,9.2
	c2.2,4,3.3,8.4,3.3,13.1c0,1.5-0.2,3.2-0.5,5.2h-40.9c0.1,3.6,1.3,6.4,3.5,8.5c2.2,2.1,5.3,3.2,9.2,3.2
	C-1116.1,1175.7-1111.9,1174.1-1108.3,1170.9z M-1105,1154.7c-0.9-3.1-2.5-5.5-4.7-7.1s-4.9-2.4-8-2.4c-3.1,0-5.9,0.8-8.3,2.5
	c-2.5,1.7-4.4,4-5.7,7.1H-1105z"/>
<path d="M-1080.8,1134.6h11.2l-0.9,7c3.4-5.5,7.4-8.3,12.1-8.3c1.1,0,2.3,0.3,3.5,0.9l-4.6,11.5c-1-0.3-1.7-0.5-2.1-0.5
	c-2.5,0-4.6,1.4-6.6,4.3c-1.9,2.8-3.5,8.6-4.6,17.2l-2.5,19.3h-12.7L-1080.8,1134.6z"/>
<path class="st1" d="M-917.1,1107.2h-8.5l-20.7-47.7h10.3l14.7,36.7 M-910.4,1081.6l7.7,0.1l6.5,14.5l14.6-36.7h10.4l-20.7,47.7
	h-8.5"/>
<path d="M-869.2,1071.6h8.5v21.3c0,0.9,0.1,1.8,0.4,2.7c0.3,0.9,0.8,1.6,1.4,2.3c0.6,0.7,1.4,1.3,2.3,1.7c0.9,0.4,2,0.6,3.3,0.6
	c1,0,1.9-0.2,2.7-0.5c0.9-0.3,1.6-0.8,2.3-1.4c0.7-0.6,1.2-1.3,1.6-2.2c0.4-0.9,0.6-1.9,0.6-2.9v-21.5h8.8v35.6h-8.7v-6.6
	c-0.2,0.9-0.6,1.8-1.3,2.7c-0.7,0.9-1.5,1.6-2.5,2.3c-1,0.7-2.1,1.2-3.4,1.6c-1.2,0.4-2.5,0.6-3.7,0.6c-1.7,0-3.3-0.3-4.8-0.9
	s-2.8-1.5-3.9-2.6c-1.1-1.1-2-2.5-2.7-4.2c-0.7-1.7-1-3.5-1-5.7V1071.6z"/>
<path d="M-804.7,1078.1c-0.2,0-0.7-0.1-1.4-0.1c-0.7,0-1.6,0-2.5,0.1c-1,0.1-2,0.4-3.1,0.9c-1.1,0.4-2.2,1.1-3.2,2
	c-1,0.8-1.7,1.7-2.2,2.6c-0.5,0.9-0.9,1.6-1.1,2.2v21.4h-8.9v-35.6h8.6v7.1c0.2-0.6,0.6-1.4,1.3-2.5c0.6-1.1,1.6-2.1,2.9-3.1
	c1-0.8,2.1-1.3,3.1-1.6c1.1-0.3,2-0.4,2.9-0.5c0.9,0,1.7,0,2.3,0.1c0.6,0.1,1.1,0.2,1.3,0.2V1078.1z"/>
<path d="M-786.3,1092.2l-4.7,4.9v10.2h-8.8v-47.7h8.8v28l14.3-15.9h10.1l-14.4,15.8l15.4,19.9h-10.1L-786.3,1092.2z"/>
<path d="M-730.4,1089.5c0,0.3,0,0.6,0,0.9c0,0.3,0,0.6-0.1,0.8h-26.2c0.3,2.9,1.3,5.2,2.9,6.9c1.6,1.7,3.9,2.6,6.8,2.6
	c2.3,0,4.1-0.5,5.5-1.5c1.4-1,2.4-2.5,3.2-4.4l6.9,1c-0.5,1.8-1.2,3.4-2.2,4.9c-1,1.5-2.1,2.7-3.5,3.8c-1.4,1.1-3,1.9-4.9,2.5
	c-1.8,0.6-3.9,0.9-6.1,0.9c-2.4,0-4.7-0.4-6.8-1.2c-2.1-0.8-4-2-5.5-3.6c-1.6-1.6-2.8-3.5-3.7-5.7c-0.9-2.3-1.4-4.8-1.4-7.7
	c0-2.7,0.5-5.2,1.4-7.5c0.9-2.3,2.2-4.2,3.8-5.8s3.5-2.8,5.6-3.7c2.1-0.9,4.4-1.3,6.9-1.3c2.9,0,5.4,0.5,7.6,1.4s4,2.3,5.4,3.9
	c1.4,1.6,2.5,3.6,3.2,5.8C-730.8,1084.5-730.4,1086.9-730.4,1089.5z M-738.3,1085.8c-0.4-2.4-1.4-4.4-2.9-6s-3.6-2.4-6.1-2.4
	c-2.6,0-4.7,0.8-6.2,2.4s-2.5,3.6-2.9,6H-738.3z"/>
<path d="M-701.4,1078.1c-0.2,0-0.7-0.1-1.4-0.1s-1.6,0-2.5,0.1c-1,0.1-2,0.4-3.1,0.9c-1.1,0.4-2.2,1.1-3.2,2c-1,0.8-1.7,1.7-2.2,2.6
	c-0.5,0.9-0.9,1.6-1.1,2.2v21.4h-8.9v-35.6h8.6v7.1c0.2-0.6,0.6-1.4,1.3-2.5c0.6-1.1,1.6-2.1,2.9-3.1c1-0.8,2.1-1.3,3.2-1.6
	c1.1-0.3,2-0.4,2.9-0.5c0.9,0,1.7,0,2.3,0.1c0.6,0.1,1.1,0.2,1.3,0.2V1078.1z"/>
<path d="M-917.1,1107.2h-8.5l-20.7-47.7h10.3l14.7,36.7"/>
<path class="st1" d="M-919.5,1014.6h-7.4l-10.9-40h7.6l7.7,29.2 M-898.7,1014.6h-6.4l-9.5-22.2h6.6l6.7,16.2 M-900,1003.8l7.6-29.2
	h6.4l-10.7,40h-7.6"/>
<path d="M-807,1240v25.7c0,3.5-0.4,6.2-1.2,8c-0.8,1.9-2.3,3.5-4.5,4.8c-2.2,1.4-5,2-8.2,2c-3.3,0-5.9-0.6-8-1.8
	c-2.1-1.2-3.6-2.8-4.5-4.8c-0.9-2-1.4-4.6-1.4-7.8V1240h7.4v25.7c0,3.5,0.7,5.8,2.2,6.9c1.5,1.1,3.2,1.7,5.1,1.7
	c2.2,0,4-0.6,5.4-1.8s2-3.5,2-6.8V1240H-807z"/>
<path d="M-767.6,1279.9h-7.6l-6.2-16.4h-10.1v16.4h-7.2v-40h17.3c4.8,0,8.4,1.1,10.6,3.3c2.3,2.2,3.4,5,3.4,8.5
	c0,5.1-2.4,8.7-7.2,10.6L-767.6,1279.9z M-791.6,1257.7h9c2.6,0,4.5-0.5,5.8-1.6c1.3-1.1,1.9-2.6,1.9-4.5c0-1.8-0.6-3.2-1.9-4.3
	c-1.3-1.1-3-1.6-5.2-1.6h-9.6V1257.7z"/>
<path d="M-728.8,1279.9h-8.1l-8.4-20.4l-7.7,10.3v10.1h-7.2v-40h7.2v21c0.9-1.4,1.6-2.4,2-3l13.3-18h7.3l-9.5,13.2L-728.8,1279.9z"
	/>
<path d="M-697.4,1279.9h-26v-40h25.7v5.9h-18.5v10.8h14.9v5.8h-14.9v11.2h18.8V1279.9z"/>
<path d="M-660.1,1279.9h-7.6l-6.2-16.4H-684v16.4h-7.2v-40h17.3c4.8,0,8.4,1.1,10.6,3.3s3.4,5,3.4,8.5c0,5.1-2.4,8.7-7.2,10.6
	L-660.1,1279.9z M-684,1257.7h9c2.6,0,4.5-0.5,5.8-1.6s1.9-2.6,1.9-4.5c0-1.8-0.6-3.2-1.9-4.3s-3-1.6-5.2-1.6h-9.6V1257.7z"/>
<g>
	<g>
		<path d="M-965.6,1200c9.1,24.1,18.1,48.2,27.2,72.3c1.3,3.5,2.6,6.9,3.9,10.4c1.8,4.7,7.9,4.8,9.6,0c6.4-18.1,12.9-36.3,19.3-54.4
			c2.2-6.1-7.5-8.7-9.6-2.7c-6.4,18.1-12.9,36.3-19.3,54.4c3.2,0,6.4,0,9.6,0c-9.1-24.1-18.1-48.2-27.2-72.3
			c-1.3-3.5-2.6-6.9-3.9-10.4C-958.3,1191.3-967.9,1193.9-965.6,1200L-965.6,1200z"/>
	</g>
</g>
<g>
	<g>
		<path class="st1" d="M-908.3,1248.1c4.3,11.5,8.7,23,13,34.5c1.8,4.7,7.9,4.8,9.6,0c8.5-24,17-48.1,25.5-72.1
			c1.2-3.5,2.5-7,3.7-10.5c2.2-6.1-7.5-8.7-9.6-2.7c-8.5,24-17,48.1-25.5,72.1c-1.2,3.5-2.5,7-3.7,10.5c3.2,0,6.4,0,9.6,0
			c-4.3-11.5-8.7-23-13-34.5C-900.9,1239.5-910.5,1242.1-908.3,1248.1L-908.3,1248.1z"/>
	</g>
</g>
<linearGradient id="SVGID_8_" gradientUnits="userSpaceOnUse" x1="74.5375" y1="98.2089" x2="124.1068" y2="12.3523">
	<stop  offset="0" style="stop-color:#4092FF"/>
	<stop  offset="1" style="stop-color:#406EFF"/>
</linearGradient>
<path class="st24" d="M81.4,102L81.4,102c7.1,2.7,15-0.8,17.7-7.9l30.1-78.8l-14.1-5.4c-6.3-2.4-13.4,0.7-15.8,7.1L73.5,84.3
	C70.8,91.4,74.4,99.3,81.4,102z"/>
<linearGradient id="SVGID_9_" gradientUnits="userSpaceOnUse" x1="11.299" y1="12.3527" x2="60.8681" y2="98.2089">
	<stop  offset="0" style="stop-color:#406EFF"/>
	<stop  offset="0.5034" style="stop-color:#4082FF"/>
	<stop  offset="1" style="stop-color:#4092FF"/>
</linearGradient>
<path class="st25" d="M54,102L54,102c-7.1,2.7-15-0.8-17.7-7.9L6.2,15.3l14.1-5.4c6.3-2.4,13.4,0.7,15.8,7.1l25.7,67.4
	C64.6,91.4,61,99.3,54,102z"/>
<g class="st26">
	
		<image style="overflow:visible;" width="382" height="486" xlink:href="D4B35A0B.png"  transform="matrix(0.24 0 0 0.24 44.1945 16.7723)">
	</image>
</g>
<linearGradient id="SVGID_10_" gradientUnits="userSpaceOnUse" x1="61.6448" y1="42.1885" x2="94.7215" y2="99.4791">
	<stop  offset="0" style="stop-color:#406EFF"/>
	<stop  offset="0.3667" style="stop-color:#4077FF"/>
	<stop  offset="0.9754" style="stop-color:#4091FF"/>
	<stop  offset="1" style="stop-color:#4092FF"/>
</linearGradient>
<path class="st27" d="M90,102L90,102c-7.1,2.7-15-0.8-17.7-7.9L54.2,46.5l15.3-5.9c5.6-2.2,12,0.7,14.1,6.3l14.3,37.4
	C100.6,91.4,97.1,99.3,90,102z"/>
<path d="M135,31.6c4.5,0,8.1,3.6,8.1,8.1v40.9c0,6.6,3.6,11,9.8,11c6.1,0,9.8-4.5,9.8-11V39.7c0-4.5,3.6-8.1,8.1-8.1h3.9
	c0,0,0,48.6,0,48.6c0,13.3-8.8,22.7-21.8,22.7c-13,0-21.8-9.5-21.8-22.7c0,0,0-48.6,0-48.6H135z"/>
<path d="M210.6,44.1c-7.3,0-12,4.6-12,12.1v46.6h-3.9c-4.5,0-8.1-3.6-8.1-8.1V57.3c0-15.1,9.8-24.4,23.9-24.4h0.4
	c4.7,0,8.4,3.8,8.3,8.5l-0.1,2.8L210.6,44.1z"/>
<path d="M356.1,44.1c-7.3,0-12,4.6-12,12.1v46.6h-3.9c-4.5,0-8.1-3.6-8.1-8.1V57.3c0-15.1,9.8-24.4,23.9-24.4h0.4
	c4.7,0,8.4,3.8,8.3,8.5l-0.1,2.8L356.1,44.1z"/>
<path d="M238.5,61.3h6.7l12.4-22.6c2.4-4.4,7-7.1,12-7.1h4.9l-17.8,32.1c7.7,3.1,12.7,10.3,12.7,19.7l0,19.8h-3.1
	c-4.8,0-8.8-3.9-8.8-8.8V82.9c0-5.7-4.6-10.3-10.3-10.3h-8.7"/>
<path d="M301.2,102.9c-13.1,0-22-9.1-22-22.7V52.8c0.1-13.3,8.8-22.5,22.2-22.5c13.1-0.1,22.3,9.2,22.3,22
	c0,12.3-8.9,21.1-22.2,21.1h-10.3v7.3c0,6,4.9,10.9,10.9,10.9h7.8c4.8,0,8.8,3.9,8.8,8.8v2.5H301.2z M301.4,62.6
	c6.4,0,10.2-4,10.2-9.9c0-6.7-3.9-11-10.3-11c-6.6,0-10.2,4.3-10.2,11v9.9H301.4z"/>
<path class="st1" d="M359.6,95.1c0-4.6,3.3-7.8,7.8-7.8c4.5,0,8,3.2,8,7.8c0,4.5-3.5,7.8-8,7.8C363,102.9,359.6,99.5,359.6,95.1z"/>
<path d="M30.2,715.1c-2.9,4.6-7.9,7.8-13.8,7.8C4.7,722.9-3,714.2-3,702v-42.8c0-1.2,0.6-1.8,1.8-1.8h7.3c1.2,0,1.8,0.6,1.8,1.8
	v43.2c0,6,3.1,10,8.5,10s8.3-4,8.3-10v-43.2c0-1.2,0.6-1.8,1.8-1.8H34c1,0,1.7,0.6,1.7,1.8v43.2c0,6,3.1,10,8.5,10
	c5.4,0,8.3-4,8.3-10v-43.2c0-1.2,0.6-1.8,1.8-1.8h7.4c1,0,1.7,0.6,1.7,1.8V702c0,12.2-7.6,20.9-19.2,20.9
	C38.1,722.9,33.2,719.7,30.2,715.1z"/>
<path d="M84.6,657.4c1.2,0,1.8,0.6,1.8,1.8v43.2c0,6,3.3,10.1,9,10.1c5.6,0,9-4.1,9-10.1v-43.2c0-1.2,0.6-1.8,1.8-1.8h7.4
	c1.2,0,1.8,0.6,1.8,1.8V702c0,12.2-8.1,20.9-20,20.9c-11.9,0-20-8.7-20-20.9v-42.8c0-1.2,0.6-1.8,1.8-1.8H84.6z"/>
<path d="M126.4,721.1V681c0-13.8,9-22.4,21.9-22.4h4.7c1,0,1.7,0.6,1.7,1.8v6.9c0,1-0.6,1.7-1.7,1.7h-4.6c-6.7,0-11,4.2-11,11.1v41
	c0,1.2-0.6,1.8-1.8,1.8h-7.4C127,722.9,126.4,722.3,126.4,721.1z"/>
<path d="M202.3,705v16.1c0,1.2-0.6,1.8-1.7,1.8h-7.6c-1,0-1.7-0.6-1.7-1.8v-16.5c0-5.8-4-9.5-9.7-9.5H174v26c0,1.2-0.6,1.8-1.8,1.8
	h-7.4c-1.2,0-1.8-0.6-1.8-1.8v-86.2c0-1,0.6-1.7,1.8-1.7h7.4c1.2,0,1.8,0.6,1.8,1.7v49.9h6.2l11.7-24.6c0.5-0.9,1.2-1.3,2.1-1.3h7.9
	c1.3,0,2.1,0.8,1.5,2.1l-12.7,26C197.7,689.7,202.3,696.4,202.3,705z"/>
<path d="M211.3,702v-25.1c0.1-12.2,8.1-20.6,20.4-20.6c12-0.1,20.5,8.5,20.5,20.2c0,11.3-8.2,19.4-20.4,19.4h-9.5v6.7
	c0,5.9,3.5,10,9.4,10c5.3,0,8.7-3.8,9.1-9.5c0.1-1.2,0.8-1.7,1.8-1.7h7.6c1,0,1.7,0.6,1.7,1.7c-0.6,11.9-8.7,19.9-20.2,19.9
	C219.5,722.9,211.3,714.6,211.3,702z M231.8,685.9c5.9,0,9.4-3.7,9.4-9.1c0-6.2-3.6-10.1-9.5-10.1c-6,0-9.4,4-9.4,10.1v9.1H231.8z"
	/>
<path d="M261.9,721.1V681c0-13.8,9-22.4,21.9-22.4h4.7c1,0,1.7,0.6,1.7,1.8v6.9c0,1-0.6,1.7-1.7,1.7H284c-6.7,0-11,4.2-11,11.1v41
	c0,1.2-0.6,1.8-1.8,1.8h-7.4C262.6,722.9,261.9,722.3,261.9,721.1z"/>
<path class="st1" d="M285.3,715.7c0-4.2,3.1-7.2,7.2-7.2s7.3,2.9,7.3,7.2c0,4.1-3.2,7.2-7.3,7.2S285.3,719.8,285.3,715.7z"/>
<path d="M305.5,702.3c0-10.6,8.2-18.8,20.2-18.8h9.6v-7c0-5.8-3.5-9.7-9.2-9.7c-5.4,0-8.3,3.6-8.7,8.8c-0.1,1.2-0.6,1.5-1.8,1.5
	h-7.4c-1,0-1.7-0.8-1.7-1.8c0.8-11.2,8.3-19.1,19.7-19.1c12.2,0,20,8.7,20,20.8v25.8c0,11.8-7.7,20.2-20,20.2
	C313.8,722.9,305.5,714.3,305.5,702.3z M335.4,702.7v-9.4h-9.2c-6,0-9.6,4-9.6,9c0,6.2,3.6,10.1,9.6,10.1
	C332,712.4,335.4,708.6,335.4,702.7z"/>
<path d="M357.3,650.3c0-3.6,2.7-6.2,6.5-6.2c3.7,0,6.7,2.6,6.7,6.2c0,3.2-2.9,6-6.7,6C360,656.3,357.3,653.7,357.3,650.3z
	 M358.3,721.3v-56c0-0.9,0.6-1.5,1.8-1.5h7.4c1.2,0,1.8,0.6,1.8,1.5v56c0,1.1-0.6,1.7-1.8,1.7h-7.4
	C358.9,722.9,358.3,722.3,358.3,721.3z"/>
<rect x="54.2" y="657.4" width="27.8" height="12.8"/>
<circle class="st1" cx="110.5" cy="636.8" r="5.9"/>
<g>
	<polygon class="st1" points="110.5,642.8 -3,636.8 110.5,630.8 	"/>
</g>
<path d="M238.8,103.2h-3.2c-4.8,0-8.8-3.9-8.8-8.8V40.6c0-4.8,3.9-8.7,8.7-8.7h3.3V103.2z"/>
</svg>
