<svg width="17" height="16" xmlns="http://www.w3.org/2000/svg">

 <g>
  <title>background</title>
  <rect fill="none" id="canvas_background" height="18" width="19" y="-1" x="-1"/>
 </g>
 <g>
  <title>Layer 1</title>
  <path fill="#55acee" id="svg_1" d="m16.338047,2.171822c-0.57492,0.292263 -1.193646,0.489405 -1.842849,0.577628c0.662853,-0.453824 1.171106,-1.172683 1.410788,-2.030229c-0.619999,0.420785 -1.306343,0.726119 -2.037451,0.890947c-0.585077,-0.713049 -1.41904,-1.158886 -2.341892,-1.158886c-1.771737,0 -3.208238,1.642844 -3.208238,3.669444c0,0.28718 0.028254,0.567099 0.083175,0.836126c-2.666653,-0.153213 -5.031083,-1.613801 -6.613614,-3.83391c-0.276189,0.541685 -0.434284,1.171956 -0.434284,1.845068c0,1.272888 0.566347,2.396193 1.427294,3.054059c-0.525712,-0.019243 -1.02063,-0.184435 -1.453326,-0.459271c-0.000318,0.015249 -0.000318,0.030861 -0.000318,0.046473c0,1.777539 1.106026,3.260276 2.573955,3.59792c-0.269205,0.083504 -0.552695,0.128523 -0.845392,0.128523c-0.206983,0 -0.407934,-0.022873 -0.603806,-0.066076c0.408569,1.457684 1.593324,2.518908 2.997126,2.548313c-1.098089,0.984257 -2.481256,1.570961 -3.98474,1.570961c-0.258729,0 -0.514283,-0.017429 -0.765393,-0.051556c1.42031,1.041618 3.10665,1.648653 4.918385,1.648653c5.901875,0 9.128841,-5.591118 9.128841,-10.440142c0,-0.159019 -0.002857,-0.317677 -0.00889,-0.475245c0.626665,-0.51627 1.17079,-1.16288 1.600629,-1.898802z"/>
 </g>
</svg>