<?xml version="1.0" encoding="utf-8"?>
<!-- Generator: Adobe Illustrator 20.1.0, SVG Export Plug-In . SVG Version: 6.00 Build 0)  -->
<svg version="1.1" id="Layer_1" xmlns="http://www.w3.org/2000/svg" xmlns:xlink="http://www.w3.org/1999/xlink" x="0px" y="0px"
	 viewBox="0 0 576 99.6" style="enable-background:new 0 0 576 99.6;" xml:space="preserve">
<style type="text/css">
	.st0{fill:url(#SVGID_1_);}
	.st1{fill:url(#SVGID_2_);}
	.st2{opacity:0.2;}
	.st3{fill:url(#SVGID_3_);}
	.st4{fill:#406EFF;}
	.st5{enable-background:new    ;}
	.st6{fill:#F04770;}
</style>
<linearGradient id="SVGID_1_" gradientUnits="userSpaceOnUse" x1="74.5761" y1="-1088.0817" x2="124.1576" y2="-1002.2042" gradientTransform="matrix(1 0 0 -1 0 -996)">
	<stop  offset="0" style="stop-color:#4092FF"/>
	<stop  offset="1" style="stop-color:#406EFF"/>
</linearGradient>
<path class="st0" d="M81.2,95.7L81.2,95.7c7.1,2.7,15-0.8,17.7-7.9L129,9l-10.6-4c-8.3-3.2-17.5,1-20.7,9.2L73.3,78.1
	C70.6,85.1,74.1,93,81.2,95.7z"/>
<linearGradient id="SVGID_2_" gradientUnits="userSpaceOnUse" x1="10.8424" y1="-1002.2042" x2="60.4179" y2="-1088.0714" gradientTransform="matrix(1 0 0 -1 0 -996)">
	<stop  offset="0" style="stop-color:#406EFF"/>
	<stop  offset="0.5034" style="stop-color:#4082FF"/>
	<stop  offset="1" style="stop-color:#4092FF"/>
</linearGradient>
<path class="st1" d="M53.8,95.7L53.8,95.7c-7.1,2.7-15-0.8-17.7-7.9L6,9l10.6-4c8.3-3.2,17.5,1,20.7,9.2l24.4,63.9
	C64.4,85.1,60.8,93,53.8,95.7z"/>
<g class="st2">
	
		<image style="overflow:visible;enable-background:new    ;" width="92" height="116" xlink:href="DDCEDAC2.png"  transform="matrix(0.9891 0 0 0.9914 43.9724 9.6627)">
	</image>
</g>
<linearGradient id="SVGID_3_" gradientUnits="userSpaceOnUse" x1="61.1191" y1="-1032.0898" x2="94.1905" y2="-1089.3711" gradientTransform="matrix(1 0 0 -1 0 -996)">
	<stop  offset="0" style="stop-color:#406EFF"/>
	<stop  offset="0.3667" style="stop-color:#4077FF"/>
	<stop  offset="0.9754" style="stop-color:#4091FF"/>
	<stop  offset="1" style="stop-color:#4092FF"/>
</linearGradient>
<path class="st3" d="M89.8,95.7L89.8,95.7c-7.1,2.7-15-0.8-17.7-7.9L54,40.2l10.6-4.1c8.3-3.2,17.5,1,20.7,9.2L97.8,78
	C100.4,85.1,96.9,93,89.8,95.7z"/>
<path d="M134.8,25.3c4.5,0,8.1,3.6,8.1,8.1v40.9c0,6.6,3.6,11,9.8,11c6.1,0,9.8-4.5,9.8-11V33.4c0-4.5,3.6-8.1,8.1-8.1h3.9v48.6
	c0,13.3-8.8,22.7-21.8,22.7s-21.8-9.5-21.8-22.7V25.3H134.8z"/>
<path d="M210.4,37.9c-7.3,0-12,4.6-12,12.1v46.6h-3.9c-4.5,0-8.1-3.6-8.1-8.1V51c0-15.1,9.8-24.4,23.9-24.4h0.4
	c4.7,0,8.4,3.8,8.3,8.5l-0.1,2.8L210.4,37.9z"/>
<path d="M355.9,37.9c-7.3,0-12,4.6-12,12.1v46.6H340c-4.5,0-8.1-3.6-8.1-8.1V51c0-15.1,9.8-24.4,23.9-24.4h0.4
	c4.7,0,8.4,3.8,8.3,8.5l-0.1,2.8L355.9,37.9z"/>
<path d="M238.3,55.1h6.7l12.4-22.6c2.4-4.4,7-7.1,12-7.1h4.9l-17.8,32.1c7.7,3.1,12.7,10.3,12.7,19.7V97H266c-4.8,0-8.8-3.9-8.8-8.8
	V76.7c0-5.7-4.6-10.3-10.3-10.3h-8.7"/>
<path d="M300.9,96.6c-13.1,0-22-9.1-22-22.7V46.5C279,33.2,287.7,24,301.1,24c13.1-0.1,22.3,9.2,22.3,22c0,12.3-8.9,21.1-22.2,21.1
	h-10.3v7.3c0,6,4.9,10.9,10.9,10.9h7.8c4.8,0,8.8,3.9,8.8,8.8v2.5C318.4,96.6,300.9,96.6,300.9,96.6z M301.2,56.3
	c6.4,0,10.2-4,10.2-9.9c0-6.7-3.9-11-10.3-11c-6.6,0-10.2,4.3-10.2,11v9.9C290.9,56.3,301.2,56.3,301.2,56.3z"/>
<path class="st4" d="M359.4,88.8c0-4.6,3.3-7.8,7.8-7.8s8,3.2,8,7.8c0,4.5-3.5,7.8-8,7.8C362.7,96.6,359.4,93.3,359.4,88.8z"/>
<path d="M238.6,96.9h-3.2c-4.8,0-8.8-3.9-8.8-8.8V34.3c0-4.8,3.9-8.7,8.7-8.7h3.3V96.9z"/>
<g>
	<path d="M389.5,26.6L389.5,26.6l20.2-1.5c13.3,0,21.8,9.5,21.8,22.7v28.1c0,12.9-8.4,22.1-21.8,22.1c-13.6,0-22.7-9.4-22.7-22.5
		c0-11.6,9-20.6,22.1-20.6h10.5v-7.7c0-6.3-3.8-10.6-10.1-10.6l-9,0.2C394.6,37.3,389.5,32.6,389.5,26.6z M419.6,75.9V65.7h-10.1
		c-6.6,0-10.5,4.3-10.5,9.8c0,6.7,3.9,11.1,10.5,11.1C416,86.5,419.6,82.3,419.6,75.9z"/>
	<path d="M443.6,10.7c0-4.2,2.9-7.3,7.1-7.3c4.1,0,7.3,3.1,7.3,7.3c0,3.8-3.2,7.1-7.3,7.1C446.5,17.8,443.6,14.7,443.6,10.7z
		 M444.7,94.7V28.4c0-1.1,0.7-1.8,2-1.8h8.1c1.3,0,2,0.7,2,1.8v58.1c0,5.6-4.5,10.1-10.1,10.1l0,0C445.6,96.6,444.7,95.8,444.7,94.7
		z"/>
</g>
<g class="st5">
	<path class="st6" d="M657.8-18.7c1.3,0,2.5,0.2,3.6,0.4c0.9,0.2,1.8,0.7,2.5,1.1c0.7,0.4,1.1,1.1,1.3,1.8c0.2,0.7,0.4,1.6,0.4,2.5
		c0,0.4,0,1.1-0.2,1.6c-0.2,0.4-0.4,0.9-0.7,1.3c-0.4,0.4-0.7,0.9-1.3,1.1c-0.4,0.4-1.1,0.7-1.8,0.9c1.6,0.2,2.9,0.9,3.8,1.8
		c0.9,0.9,1.3,2,1.3,3.4c0,0.9-0.2,1.8-0.4,2.7c-0.4,0.9-0.9,1.6-1.6,2c-0.7,0.7-1.6,0.9-2.5,1.3c-0.9,0.2-2,0.4-3.4,0.4h-7.8v-22.4
		C651.1-18.7,657.8-18.7,657.8-18.7z M653.6-16.2v7.6h4c0.9,0,1.6,0,2.2-0.2c0.7-0.2,1.1-0.4,1.6-0.7c0.4-0.2,0.7-0.7,0.9-1.1
		c0.2-0.4,0.2-0.9,0.2-1.6c0-1.3-0.4-2.2-1.1-2.9c-0.9-0.7-2-0.9-3.8-0.9h-4V-16.2z M658.5,1.5c0.9,0,1.6,0,2.2-0.2
		c0.7-0.2,1.1-0.4,1.6-0.9c0.4-0.4,0.7-0.9,0.9-1.3c0.2-0.4,0.2-1.1,0.2-1.6c0-1.1-0.4-2-1.3-2.7c-0.9-0.7-2-1.1-3.8-1.1h-4.9v7.8
		C653.4,1.5,658.5,1.5,658.5,1.5z"/>
	<path class="st6" d="M684.7,1.5v2.5h-13.9v-22.4h13.9v2.5h-10.7v7.4h8.7v2.5h-8.7v7.6H684.7z"/>
	<path class="st6" d="M704.2-16H697V3.9h-3.1V-16h-7.4v-2.5h17.7V-16z"/>
	<path class="st6" d="M723.4,3.9h-2.2c-0.2,0-0.4,0-0.7-0.2c-0.2-0.2-0.2-0.2-0.4-0.4l-2-5.4H708l-2,5.4c0,0.2-0.2,0.4-0.4,0.4
		s-0.4,0.2-0.7,0.2h-2.2l9-22.4h3.1L723.4,3.9z M717.1-4.4l-3.6-9.2c0-0.2-0.2-0.7-0.2-0.9s-0.2-0.7-0.2-1.1c-0.2,0.9-0.4,1.6-0.7,2
		l-3.6,9.2H717.1z"/>
</g>
<g>
	<path class="st6" d="M486,65.2c1.8,0,3.4,0.2,4.7,0.5c1.3,0.4,2.4,0.9,3.2,1.5c0.8,0.7,1.5,1.5,1.8,2.4c0.4,0.9,0.6,2,0.6,3.2
		c0,0.7-0.1,1.3-0.3,2c-0.2,0.6-0.5,1.2-1,1.8c-0.4,0.6-1,1-1.6,1.5c-0.7,0.4-1.4,0.8-2.3,1.1c4.1,0.9,6.1,3,6.1,6.5
		c0,1.2-0.2,2.4-0.7,3.4c-0.5,1-1.1,1.9-2,2.6c-0.9,0.7-2,1.3-3.2,1.7c-1.3,0.4-2.7,0.6-4.4,0.6h-10.6V65.2H486z M481.1,68.9v9h4.7
		c2,0,3.5-0.4,4.5-1.2s1.5-1.9,1.5-3.3c0-1.6-0.5-2.7-1.4-3.4c-0.9-0.7-2.4-1.1-4.3-1.1H481.1z M486.9,90.3c1.1,0,1.9-0.1,2.7-0.4
		c0.7-0.2,1.3-0.6,1.8-1s0.8-0.9,1-1.5c0.2-0.6,0.3-1.2,0.3-1.9c0-1.4-0.5-2.4-1.4-3.2s-2.4-1.2-4.4-1.2h-5.8v9.1H486.9z"/>
	<path class="st6" d="M520.5,90.2l0,3.8h-18V65.2h18V69h-13.3v8.7h10.6v3.7h-10.6v8.9H520.5z"/>
	<path class="st6" d="M545.4,69.1h-9V94h-4.7V69.1h-9v-3.9h22.6V69.1z"/>
	<path class="st6" d="M570.7,94h-3.6c-0.4,0-0.7-0.1-1-0.3c-0.3-0.2-0.4-0.5-0.6-0.8l-2.4-6.4h-12.4l-2.4,6.4
		c-0.1,0.3-0.3,0.5-0.6,0.7s-0.6,0.3-1,0.3h-3.6l11.4-28.8h4.7L570.7,94z M561.8,83.2l-4-10.5c-0.3-0.8-0.6-1.8-1-3.1
		c-0.1,0.6-0.3,1.2-0.5,1.7c-0.2,0.5-0.3,1-0.5,1.4l-4,10.5H561.8z"/>
</g>
</svg>
