<svg width="16" height="16" xmlns="http://www.w3.org/2000/svg">
 <defs>
  <radialGradient gradientTransform="matrix(0.11622186005115509,0,0,0.11622186005115509,0.4999983608722687,0.4999983608722687)" r="163.5519" id="Instagram_2_" gradientUnits="userSpaceOnUse" cy="128.4444" cx="19.1111">
   <stop stop-color="#FFB140" offset="0"/>
   <stop stop-color="#FF5445" offset="0.2559"/>
   <stop stop-color="#FC2B82" offset="0.599"/>
   <stop stop-color="#8E40B7" offset="1"/>
  </radialGradient>
 </defs>
 <g>
  <title>background</title>
  <rect fill="none" id="canvas_background" height="18" width="18" y="-1" x="-1"/>
 </g>
 <g>
  <title>Layer 1</title>
  <rect x="0" y="0" id="svg_1" width="112.859718" height="114.573715" fill-rule="evenodd" fill="none" clip-rule="evenodd"/>
  <path id="Instagram" fill-rule="evenodd" fill="url(#Instagram_2_)" d="m12.80127,3.96771c0,0.493013 -0.399687,0.892584 -0.892584,0.892584c-0.492897,0 -0.892584,-0.39957 -0.892584,-0.892584c0,-0.493013 0.399687,-0.892584 0.892584,-0.892584c0.493012,0 0.892584,0.399571 0.892584,0.892584zm-4.863073,6.44985c-1.369326,0 -2.479361,-1.110035 -2.479361,-2.479362c0,-1.369326 1.110035,-2.479361 2.479361,-2.479361c1.369328,0 2.479362,1.110035 2.479362,2.479361c0,1.369328 -1.110035,2.479362 -2.479362,2.479362zm0,-6.298994c-2.109543,0 -3.819631,1.710088 -3.819631,3.819631c0,2.109545 1.710088,3.819633 3.819631,3.819633c2.109545,0 3.819633,-1.710089 3.819633,-3.819633c0,-2.109543 -1.710089,-3.819631 -3.819633,-3.819631zm0,-2.278297c1.986117,0 2.221351,0.007555 3.005615,0.043351c0.725224,0.033123 1.119101,0.154226 1.381181,0.256153c0.347155,0.134933 0.594939,0.296133 0.855276,0.55647c0.260338,0.260221 0.421537,0.508006 0.556471,0.855277c0.10181,0.26208 0.223029,0.655956 0.256153,1.38118c0.035796,0.784381 0.043351,1.019614 0.043351,3.00573c0,1.986118 -0.007555,2.22135 -0.043351,3.005616c-0.033124,0.725224 -0.154227,1.1191 -0.256153,1.381181c-0.134933,0.347155 -0.296133,0.594939 -0.556471,0.855277c-0.260221,0.260337 -0.508005,0.421536 -0.855276,0.556469c-0.26208,0.10181 -0.655956,0.223031 -1.381181,0.256154c-0.784265,0.035796 -1.019498,0.04335 -3.005615,0.04335c-1.986232,0 -2.221465,-0.007554 -3.00573,-0.04335c-0.725224,-0.033123 -1.1191,-0.154226 -1.381181,-0.256154c-0.347155,-0.134933 -0.594939,-0.296132 -0.855277,-0.556469c-0.260221,-0.260221 -0.421536,-0.508006 -0.55647,-0.855277c-0.10181,-0.262081 -0.22303,-0.655957 -0.256153,-1.381181c-0.035796,-0.784382 -0.043351,-1.019615 -0.043351,-3.005616c0,-1.986115 0.007554,-2.221348 0.043351,-3.00573c0.033123,-0.725224 0.154226,-1.1191 0.256153,-1.38118c0.134933,-0.347155 0.296133,-0.59494 0.55647,-0.855277c0.260221,-0.260337 0.508006,-0.421536 0.855277,-0.55647c0.26208,-0.10181 0.655956,-0.22303 1.381181,-0.256153c0.784381,-0.035796 1.019614,-0.043351 3.00573,-0.043351zm0,-1.340271c-2.020052,0 -2.273416,0.0086 -3.066746,0.044745c-0.791703,0.036145 -1.332484,0.161897 -1.805507,0.34576c-0.489178,0.190023 -0.903973,0.444433 -1.31749,0.85795c-0.413517,0.413517 -0.667927,0.828313 -0.85795,1.31749c-0.183863,0.473139 -0.309615,1.013803 -0.34576,1.805507c-0.036145,0.79333 -0.044745,1.046694 -0.044745,3.066746c0,2.020054 0.0086,2.273417 0.044745,3.066749c0.036145,0.791702 0.161897,1.332367 0.34576,1.805506c0.190023,0.489178 0.444433,0.903974 0.85795,1.317492c0.413517,0.413517 0.828313,0.66781 1.31749,0.857949c0.473139,0.183864 1.013803,0.309615 1.805507,0.34576c0.79333,0.036145 1.046694,0.044745 3.066746,0.044745c2.020054,0 2.273417,-0.0086 3.066749,-0.044745c0.791702,-0.036145 1.332367,-0.161897 1.805506,-0.34576c0.489178,-0.190139 0.903974,-0.444432 1.317492,-0.857949c0.413517,-0.413518 0.66781,-0.828314 0.857949,-1.317492c0.183864,-0.473139 0.309615,-1.013803 0.34576,-1.805506c0.036145,-0.793331 0.044745,-1.046695 0.044745,-3.066749c0,-2.020052 -0.0086,-2.273416 -0.044745,-3.066746c-0.036145,-0.791703 -0.161897,-1.332367 -0.34576,-1.805507c-0.190139,-0.489178 -0.444432,-0.903973 -0.857949,-1.31749c-0.413518,-0.413517 -0.828314,-0.667811 -1.317492,-0.85795c-0.473139,-0.183863 -1.013803,-0.309615 -1.805506,-0.34576c-0.793331,-0.036145 -1.046695,-0.044745 -3.066749,-0.044745z" clip-rule="evenodd"/>
 </g>
</svg>