<svg width="15" height="16" xmlns="http://www.w3.org/2000/svg">
 <title/>
 <desc/>

 <g>
  <title>background</title>
  <rect fill="none" id="canvas_background" height="18" width="17" y="-1" x="-1"/>
 </g>
 <g>
  <title>Layer 1</title>
  <path fill="#007bb5" id="svg_1" d="m3.560713,14.656837l0,-9.370872l-2.755972,0l0,9.370872l2.755972,0zm0,-12.692409c-0.016417,-0.838586 -0.54823,-1.477076 -1.412181,-1.477076c-0.86417,0 -1.428818,0.638489 -1.428818,1.477076c0,0.820377 0.548232,1.477339 1.395766,1.477339l0.016417,0c0.880587,0 1.428817,-0.656962 1.428817,-1.477339zm4.496212,12.692409l0,-5.339089c0,-0.285738 0.019652,-0.571478 0.099607,-0.775171c0.21859,-0.571192 0.716083,-1.162475 1.551425,-1.162475c1.09432,0 1.78062,0.652674 1.78062,1.937646l0,5.339089l2.774599,0l0,-5.481956c0,-2.93659 -1.491662,-4.303033 -3.481359,-4.303033c-1.631385,0 -2.347469,0.95849 -2.74508,1.610874l0.019919,-1.253306l-2.769775,0c0.039841,0.897099 0,9.427422 0,9.427422l2.770043,0z"/>
 </g>
</svg>