<svg width="85" height="19.99999" xmlns="http://www.w3.org/2000/svg">

 <g>
  <title>background</title>
  <rect fill="none" id="canvas_background" height="21.99999" width="87" y="-1" x="-1"/>
 </g>
 <g>
  <title>Layer 1</title>
  <path fill="#ff9900" fill-rule="evenodd" id="path7" d="m34.013828,14.416969c-3.017908,2.227221 -7.393347,3.411762 -11.160849,3.411762c-5.280535,0 -10.035306,-1.951844 -13.63391,-5.200841c-0.282402,-0.25494 -0.030415,-0.603855 0.309191,-0.406128c3.882141,2.259 8.682998,3.619259 13.641627,3.619259c3.344805,0 7.021954,-0.693976 10.405121,-2.129151c0.510559,-0.216343 0.938248,0.336664 0.43882,0.705099z" clip-rule="evenodd"/>
  <path fill="#ff9900" fill-rule="evenodd" id="path9" d="m35.269894,12.983386c-0.385925,-0.494434 -2.55162,-0.234051 -3.52437,-0.118046c-0.294662,0.034958 -0.340298,-0.221794 -0.074688,-0.408398c1.727339,-1.21361 4.557959,-0.862875 4.8869,-0.457203c0.331665,0.410213 -0.086723,3.247869 -1.705772,4.602225c-0.24926,0.208397 -0.486034,0.09716 -0.375477,-0.177755c0.363899,-0.909409 1.179779,-2.94639 0.793407,-3.440824z" clip-rule="evenodd"/>
  <path fill="#ffffff" fill-rule="evenodd" id="path13" d="m31.813852,3.885401l0,-1.178877c0.000908,-0.17934 0.136208,-0.298981 0.298754,-0.298752l5.284164,-0.00045c0.169121,0.000221 0.304653,0.123039 0.305107,0.298065l-0.000454,1.011118c-0.001366,0.169575 -0.144157,0.390911 -0.397732,0.742329l-2.737312,3.908023c1.016106,-0.023834 2.090782,0.128033 3.013821,0.647213c0.208397,0.11691 0.26424,0.290349 0.280354,0.460155l0,1.258107c0,0.172981 -0.189552,0.373661 -0.388866,0.269688c-1.626545,-0.852203 -3.784981,-0.945278 -5.583372,0.01022c-0.184109,0.098064 -0.376163,-0.099659 -0.376163,-0.273098l0,-1.19613c0,-0.191145 0.003635,-0.5185 0.19659,-0.810209l3.171144,-4.549561l-2.760929,-0.000454c-0.168444,-0.00045 -0.30374,-0.12077 -0.305105,-0.297386z" clip-rule="evenodd"/>
  <path fill="#ffffff" fill-rule="evenodd" id="path15" d="m12.538224,11.249463l-1.607701,0c-0.153009,-0.01022 -0.275141,-0.125083 -0.287624,-0.271731l0.001135,-8.251005c0,-0.165264 0.138931,-0.297157 0.310328,-0.297157l1.497146,-0.000458c0.156639,0.007946 0.282402,0.126675 0.292391,0.277184l0,1.077173l0.029964,0c0.390232,-1.041758 1.125528,-1.527795 2.115985,-1.527795c1.005434,0 1.63562,0.486259 2.086012,1.527795c0.390005,-1.041758 1.275358,-1.527795 2.220861,-1.527795c0.675364,0 1.41066,0.277862 1.860825,0.903054c0.510321,0.694435 0.405441,1.701236 0.405441,2.587041l-0.001358,5.206987c0,0.164585 -0.138931,0.297156 -0.310106,0.297156l-1.605658,0c-0.161177,-0.01067 -0.288532,-0.138244 -0.288532,-0.296699l-0.000221,-4.374083c0,-0.347103 0.029963,-1.215427 -0.044956,-1.545279c-0.120087,-0.555495 -0.480129,-0.711905 -0.94528,-0.711905c-0.390232,0 -0.79545,0.260383 -0.960487,0.676948c-0.165264,0.416796 -0.150057,1.111227 -0.150057,1.580008l0,4.373625c0,0.164585 -0.138931,0.297164 -0.310099,0.297164l-1.605877,0c-0.161182,-0.01067 -0.288538,-0.138251 -0.288538,-0.296706l-0.001358,-4.374083c0,-0.920086 0.150051,-2.274442 -0.990457,-2.274442c-1.15572,0 -1.110544,1.319627 -1.110544,2.274442l-0.000679,4.373625c-0.000229,0.164356 -0.139389,0.296935 -0.310555,0.296935z" clip-rule="evenodd"/>
  <path fill="#ffffff" fill-rule="evenodd" id="path17" d="m42.250748,2.255674c2.386124,0 3.676239,2.048788 3.676239,4.653078c0,2.51757 -1.425182,4.514601 -3.676239,4.514601c-2.340958,0 -3.616535,-2.048788 -3.616535,-4.601545c0,-2.569332 1.290565,-4.566133 3.616535,-4.566133zm0.014984,1.684209c-1.185463,0 -1.260372,1.614511 -1.260372,2.621763c0,1.007028 -0.014759,3.160021 1.245617,3.160021c1.245617,0 1.30555,-1.736199 1.30555,-2.795207c0,-0.694663 -0.030201,-1.528026 -0.240181,-2.187947c-0.180252,-0.572982 -0.54052,-0.798629 -1.050613,-0.798629z" clip-rule="evenodd"/>
  <path fill="#ffffff" fill-rule="evenodd" id="path19" d="m49.021397,11.249463l-1.60157,0c-0.161186,-0.01067 -0.288532,-0.138251 -0.288532,-0.296706l-0.002502,-8.253957c0.013618,-0.150738 0.146648,-0.26923 0.308743,-0.26923l1.491241,-0.000458c0.140289,0.007038 0.256069,0.103065 0.285583,0.231327l0,1.261961l0.030418,0c0.450169,-1.128481 1.080353,-1.666726 2.190441,-1.666726c0.72031,0 1.425865,0.260383 1.876034,0.972299c0.42065,0.659695 0.42065,1.770923 0.42065,2.569555l0,5.192011c-0.018158,0.14642 -0.149372,0.259925 -0.308052,0.259925l-1.61179,0c-0.148922,-0.009762 -0.269009,-0.119182 -0.286491,-0.259925l0,-4.480101c0,-0.903057 0.105331,-2.222455 -1.00544,-2.222455c-0.390461,0 -0.750504,0.260383 -0.930294,0.659698c-0.225197,0.503519 -0.25539,1.007029 -0.25539,1.562757l0,4.442869c-0.002495,0.164577 -0.141426,0.297156 -0.313049,0.297156z" clip-rule="evenodd"/>
  <path d="m477.839996,300.25c0,-1.829834 1.559601,-3.312012 3.485016,-3.312012c1.925415,0 3.484985,1.482178 3.484985,3.312012c0,1.829834 -1.55957,3.312012 -3.484985,3.312012c-1.925415,0 -3.485016,-1.482178 -3.485016,-3.312012z"/>
  <path d="m477.839996,300.25c0,-1.829834 1.559601,-3.312012 3.485016,-3.312012c1.925415,0 3.484985,1.482178 3.484985,3.312012c0,1.829834 -1.55957,3.312012 -3.484985,3.312012c-1.925415,0 -3.485016,-1.482178 -3.485016,-3.312012z"/>
  <path d="m477.839996,300.25c0,-1.829834 1.559601,-3.312012 3.485016,-3.312012c1.925415,0 3.484985,1.482178 3.484985,3.312012c0,1.829834 -1.55957,3.312012 -3.484985,3.312012c-1.925415,0 -3.485016,-1.482178 -3.485016,-3.312012z"/>
  <path d="m477.839996,300.25c0,-1.829834 1.559601,-3.312012 3.485016,-3.312012c1.925415,0 3.484985,1.482178 3.484985,3.312012c0,1.829834 -1.55957,3.312012 -3.484985,3.312012c-1.925415,0 -3.485016,-1.482178 -3.485016,-3.312012z"/>
  <path d="m477.839996,300.25c0,-1.829834 1.559601,-3.312012 3.485016,-3.312012c1.925415,0 3.484985,1.482178 3.484985,3.312012c0,1.829834 -1.55957,3.312012 -3.484985,3.312012c-1.925415,0 -3.485016,-1.482178 -3.485016,-3.312012z"/>
  <path d="m477.839996,300.25c0,-1.829834 1.559601,-3.312012 3.485016,-3.312012c1.925415,0 3.484985,1.482178 3.484985,3.312012c0,1.829834 -1.55957,3.312012 -3.484985,3.312012c-1.925415,0 -3.485016,-1.482178 -3.485016,-3.312012z"/>
  <path d="m477.839996,300.25c0,-1.829834 1.559601,-3.312012 3.485016,-3.312012c1.925415,0 3.484985,1.482178 3.484985,3.312012c0,1.829834 -1.55957,3.312012 -3.484985,3.312012c-1.925415,0 -3.485016,-1.482178 -3.485016,-3.312012z"/>
  <ellipse transform="matrix(0.227012, 0, 0, 0.227012, -45.5597, -17.568)" fill-rule="evenodd" ry="3.312" rx="3.485" id="ellipse21" cy="300.25" cx="481.32501" clip-rule="evenodd"/>
  <path fill="#ffffff" id="path23" d="m71.771896,11.251733c-0.166634,-0.005222 -0.29966,-0.135299 -0.29966,-0.296702l0,-8.252367c0.011345,-0.145512 0.134384,-0.26152 0.287628,-0.271278l0.590454,-0.000229c0.162315,0 0.295349,0.1185 0.30851,0.271736l0,1.203165c0.419746,-0.953224 1.201584,-1.700322 2.189758,-1.700322l0.061981,0.000908l0.059479,-0.000908c1.048119,0 1.815422,0.773431 2.10009,1.896917c0.444489,-1.10941 1.281487,-1.896917 2.385223,-1.896917l0.057213,0.000908l0.064468,-0.000908c0.780228,0 1.530281,0.503512 1.920517,1.267407c0.375031,0.729393 0.360275,1.701467 0.360275,2.517797l-0.000458,4.96409c0.000458,0.158222 -0.127121,0.286036 -0.288307,0.296702l-0.70623,0c-0.152328,-0.004765 -0.276962,-0.113959 -0.297165,-0.256293l0,-5.004499c0,-0.590683 0.029739,-1.215425 -0.210442,-1.753903c-0.245171,-0.550957 -0.712585,-0.893292 -1.215202,-0.918488c-0.561172,0.027699 -1.076256,0.435181 -1.409058,0.987954c-0.435638,0.712146 -0.420425,1.354589 -0.420425,2.187947l0,4.503714c-0.01976,0.137115 -0.13871,0.243812 -0.285812,0.25357l-0.702835,0c-0.166618,-0.005222 -0.300339,-0.135299 -0.300339,-0.296702l-0.003174,-5.29394c0,-0.486488 -0.029968,-1.05924 -0.254929,-1.493291c-0.259476,-0.499649 -0.72509,-0.823369 -1.213158,-0.849022c-0.506012,0.028374 -1.018143,0.414978 -1.321671,0.86628c-0.390007,0.572749 -0.465149,1.284886 -0.465149,2.014279l-0.000443,4.755693c0,0.158222 -0.127586,0.286029 -0.288544,0.296702l-0.702599,0z"/>
  <path fill="#ffffff" id="path25" d="m66.927223,11.425397c-2.280792,0 -3.301224,-2.32688 -3.301224,-4.653307c0,-2.448101 1.200676,-4.566358 3.496452,-4.566358l0.059258,0.000454l0.061966,-0.000454c2.236298,0 3.346855,2.257188 3.346855,4.583612c0,2.465584 -1.230644,4.636053 -3.542084,4.636053l-0.059029,-0.000908l-0.062195,0.000908zm0.168442,-1.12984c0.750496,-0.024517 1.342331,-0.489212 1.692825,-1.266277c0.315094,-0.69466 0.375031,-1.493062 0.375031,-2.256965c0,-0.833591 -0.090126,-1.701686 -0.480125,-2.413368c-0.349373,-0.622696 -0.951859,-1.017018 -1.590225,-1.040848c-0.710548,0.026104 -1.343925,0.506233 -1.66468,1.249019c-0.285126,0.64245 -0.375259,1.493288 -0.375259,2.205197c0,0.798632 0.10511,1.718944 0.435417,2.413376c0.320541,0.657657 0.938919,1.086257 1.607018,1.109866z"/>
  <path fill="#ffffff" id="path27" d="m59.799492,10.261049c1.024052,-0.032463 1.561611,-0.852885 1.784534,-1.916668c0.043594,-0.132581 0.145523,-0.234731 0.294662,-0.234731l0.677174,-0.002953c0.159813,0.008396 0.306702,0.130757 0.294441,0.279679c-0.31282,1.809525 -1.40498,3.03902 -2.961823,3.03902l-0.06266,-0.000908l-0.059021,0.000908c-2.265812,0 -3.241055,-2.274664 -3.241055,-4.583841c0,-2.291917 0.990234,-4.635824 3.256268,-4.635824l0.059929,0.000683l0.061752,-0.000683c1.572277,0 2.694389,1.211793 2.937988,3.022444c0,0.135757 -0.126007,0.253124 -0.273788,0.270374l-0.709858,-0.008396c-0.14756,-0.020889 -0.244942,-0.149151 -0.267197,-0.291264c-0.170937,-1.010659 -0.751633,-1.814508 -1.718708,-1.846292c-1.540733,0.049263 -1.979092,1.945501 -1.979092,3.402012c0,1.406118 0.365719,3.455588 1.906452,3.506438z"/>
  <path fill="#ffffff" fill-rule="evenodd" id="path29" d="m27.601404,7.308976c0,0.626556 0.014759,1.148454 -0.300793,1.705316c-0.25584,0.45267 -0.661736,0.730755 -1.112808,0.730755c-0.6168,0 -0.977747,-0.469913 -0.977747,-1.165707c0,-1.369117 1.22814,-1.618373 2.391348,-1.618373l0,0.348009zm1.620871,3.919598c-0.106697,0.095348 -0.25993,0.101933 -0.380016,0.037689c-0.533939,-0.444034 -0.629511,-0.649032 -0.92145,-1.071727c-0.882626,0.899197 -1.507587,1.168662 -2.650599,1.168662c-1.353451,0 -2.406334,-0.83541 -2.406334,-2.505545c0,-1.305323 0.706692,-2.192485 1.714397,-2.627666c0.872414,-0.382973 2.090563,-0.452209 3.022905,-0.556633l0,-0.208855c0,-0.382973 0.029961,-0.835409 -0.195457,-1.165936c-0.195457,-0.296028 -0.571617,-0.41771 -0.902603,-0.41771c-0.612932,0 -1.15822,0.314186 -1.291925,0.965488c-0.027927,0.144836 -0.133488,0.288076 -0.279228,0.295576l-1.557989,-0.168676c-0.131664,-0.029743 -0.278091,-0.1353 -0.240175,-0.335979c0.358227,-1.890337 2.065357,-2.461495 3.595194,-2.461495c0.782059,0 1.804754,0.208854 2.42132,0.800447c0.782059,0.730751 0.706692,1.705314 0.706692,2.766828l0,2.504633c0,0.753227 0.313049,1.083528 0.607027,1.489883c0.102386,0.146423 0.125771,0.320091 -0.005215,0.427013c-0.328497,0.275364 -0.912142,0.782055 -1.233137,1.067641l-0.003407,-0.003639z" clip-rule="evenodd"/>
  <path fill="#ffffff" fill-rule="evenodd" id="path31" d="m6.526703,7.308976c0,0.626556 0.014984,1.148454 -0.300795,1.705316c-0.25561,0.45267 -0.661736,0.730755 -1.11281,0.730755c-0.616344,0 -0.977519,-0.469913 -0.977519,-1.165707c0,-1.369117 1.228135,-1.618373 2.391124,-1.618373l0,0.348009zm1.620866,3.919598c-0.106468,0.095348 -0.259928,0.101933 -0.379787,0.037689c-0.53416,-0.444034 -0.629737,-0.649032 -0.92167,-1.071727c-0.882403,0.899197 -1.507595,1.168662 -2.650374,1.168662c-1.353675,0 -2.406331,-0.83541 -2.406331,-2.505545c0,-1.305323 0.706916,-2.192485 1.714399,-2.627666c0.872181,-0.382973 2.090557,-0.452209 3.022897,-0.556633l0,-0.208855c0,-0.382973 0.029963,-0.835409 -0.195457,-1.165936c-0.195684,-0.296028 -0.571847,-0.41771 -0.902376,-0.41771c-0.613157,0 -1.158443,0.314186 -1.292155,0.965488c-0.027923,0.144836 -0.133257,0.288076 -0.279224,0.295576l-1.558213,-0.168676c-0.131668,-0.029743 -0.278092,-0.1353 -0.239954,-0.335979c0.357998,-1.890337 2.065133,-2.461495 3.594973,-2.461495c0.782052,0 1.804516,0.208854 2.421312,0.800447c0.781831,0.730751 0.706693,1.705314 0.706693,2.766828l0,2.504633c0,0.753227 0.31282,1.083528 0.606804,1.489883c0.10261,0.146423 0.125534,0.320091 -0.005222,0.427013c-0.328264,0.275364 -0.911909,0.782055 -1.232905,1.067641l-0.003408,-0.003639z" clip-rule="evenodd"/>
  <g>
   <g transform="matrix(0.227012, 0, 0, 0.227012, -45.5597, -17.568)" id="g3">
    <g id="g5">
     <path fill="#ffffff" fill-rule="evenodd" id="path7" d="m350.524841,140.894791c-13.294006,9.810959 -32.567993,15.028976 -49.164001,15.028976c-23.260986,0 -44.205994,-8.598022 -60.057999,-22.909943c-1.244019,-1.123047 -0.133972,-2.660034 1.362,-1.789001c17.101028,9.950974 38.249039,15.942963 60.091995,15.942963c14.734009,0 30.932007,-3.056992 45.835022,-9.379013c2.249023,-0.952988 4.132996,1.483032 1.932983,3.106018z" clip-rule="evenodd"/>
     <path fill="#ffffff" fill-rule="evenodd" id="path9" d="m356.057861,134.579803c-1.700012,-2.17804 -11.23999,-1.031006 -15.524963,-0.52002c-1.298035,0.153992 -1.499023,-0.97699 -0.329041,-1.799011c7.609009,-5.345993 20.078003,-3.800964 21.527039,-2.013977c1.460999,1.807007 -0.382019,14.306992 -7.514038,20.27298c-1.097961,0.917969 -2.140991,0.427979 -1.653992,-0.78302c1.603027,-4.005966 5.197021,-12.978973 3.494995,-15.156952z" clip-rule="evenodd"/>
    </g>
    <g id="g11">
     <path fill="#ffffff" fill-rule="evenodd" id="path13" d="m340.833862,94.502884l0,-5.192902c0.004028,-0.789993 0.600037,-1.317001 1.31604,-1.315994l23.276978,-0.001984c0.744995,0.000977 1.34198,0.541992 1.343994,1.312973l-0.002014,4.453934c-0.005981,0.746964 -0.63501,1.721954 -1.752014,3.269943l-12.057983,17.214981c4.476013,-0.10498 9.210022,0.563965 13.276001,2.851013c0.91803,0.514954 1.164001,1.278976 1.234985,2.026962l0,5.541992c0,0.762024 -0.834961,1.645996 -1.712952,1.187988c-7.165039,-3.753967 -16.673035,-4.164001 -24.595032,0.045044c-0.810974,0.431946 -1.656982,-0.439026 -1.656982,-1.203003l0,-5.269043c0,-0.84198 0.015991,-2.283981 0.865967,-3.568954l13.969055,-20.040955l-12.162048,-0.002014c-0.742004,-0.001984 -1.337952,-0.531967 -1.343994,-1.309982z" clip-rule="evenodd"/>
     <path fill="#ffffff" fill-rule="evenodd" id="path15" d="m255.923859,126.941818l-7.082016,0c-0.674011,-0.045044 -1.211975,-0.551025 -1.266968,-1.197021l0.005005,-36.345825c0,-0.727997 0.612,-1.308975 1.367004,-1.308975l6.594955,-0.002014c0.690002,0.035004 1.244019,0.557999 1.288025,1.220993l0,4.744919l0.131958,0c1.719025,-4.588913 4.958038,-6.729904 9.321075,-6.729904c4.428955,0 7.204956,2.141968 9.188965,6.729904c1.718018,-4.588913 5.618042,-6.729904 9.78302,-6.729904c2.974976,0 6.213989,1.223984 8.197021,3.977936c2.247986,3.058975 1.78595,7.493896 1.78595,11.395905l-0.005981,22.936981c0,0.724976 -0.612,1.30896 -1.366028,1.30896l-7.072998,0c-0.709961,-0.046997 -1.270996,-0.608948 -1.270996,-1.306946l-0.000977,-19.268005c0,-1.528992 0.132019,-5.354004 -0.197998,-6.807007c-0.528992,-2.44696 -2.11499,-3.135956 -4.164001,-3.135956c-1.718994,0 -3.504028,1.146988 -4.231018,2.981964c-0.727966,1.835999 -0.661011,4.894989 -0.661011,6.959991l0,19.265961c0,0.725037 -0.612,1.309021 -1.365967,1.309021l-7.073975,0c-0.710022,-0.046997 -1.271057,-0.609009 -1.271057,-1.307007l-0.005981,-19.267975c0,-4.053009 0.661011,-10.018967 -4.362976,-10.018967c-5.091003,0 -4.892029,5.812973 -4.892029,10.018967l-0.002991,19.265961c-0.000977,0.723999 -0.614044,1.308044 -1.368011,1.308044z" clip-rule="evenodd"/>
     <path fill="#ffffff" fill-rule="evenodd" id="path17" d="m386.808838,87.32399c10.510986,0 16.194031,9.024857 16.194031,20.496826c0,11.089996 -6.278015,19.886978 -16.194031,19.886978c-10.312012,0 -15.930969,-9.025009 -15.930969,-20.269974c0,-11.317978 5.684998,-20.113831 15.930969,-20.113831zm0.06604,7.418884c-5.222046,0 -5.552002,7.111938 -5.552002,11.54892c0,4.435989 -0.065002,13.919983 5.487,13.919983c5.487,0 5.750977,-7.647995 5.750977,-12.312958c0,-3.060028 -0.132996,-6.731018 -1.057983,-9.637985c-0.794006,-2.523987 -2.381042,-3.51796 -4.627991,-3.51796z" clip-rule="evenodd"/>
     <path fill="#ffffff" fill-rule="evenodd" id="path19" d="m416.63385,126.941818l-7.054993,0c-0.710022,-0.046997 -1.270996,-0.609009 -1.270996,-1.307007l-0.010986,-36.358856c0.059998,-0.664001 0.645996,-1.185959 1.359985,-1.185959l6.569031,-0.002014c0.617981,0.031006 1.127991,0.45401 1.257996,1.018997l0,5.558899l0.133972,0c1.983032,-4.970932 4.759033,-7.341888 9.648987,-7.341888c3.173035,0 6.281006,1.146988 8.264038,4.282944c1.852966,2.90593 1.852966,7.800888 1.852966,11.318893l0,22.870972c-0.079956,0.64502 -0.657959,1.14502 -1.356995,1.14502l-7.099976,0c-0.656006,-0.04303 -1.184998,-0.525024 -1.262024,-1.14502l0,-19.734985c0,-3.977997 0.463989,-9.789963 -4.429016,-9.789963c-1.719971,0 -3.305969,1.146973 -4.097961,2.90596c-0.992004,2.218018 -1.125,4.436005 -1.125,6.884003l0,19.570984c-0.010986,0.724976 -0.622986,1.309021 -1.379028,1.309021z" clip-rule="evenodd"/>
     <ellipse fill="#ffffff" fill-rule="evenodd" ry="3.312" rx="3.485" id="ellipse21" cy="124.058088" cx="445.307879" clip-rule="evenodd"/>
     <path fill="#ffffff" id="path23" d="m516.85083,126.951828c-0.734009,-0.02301 -1.320007,-0.596008 -1.320007,-1.307007l0,-36.351837c0.049988,-0.640991 0.59198,-1.151993 1.267029,-1.194992l2.600952,-0.001007c0.715027,0 1.301025,0.521988 1.359009,1.197006l0,5.299896c1.848999,-4.198929 5.29303,-7.489868 9.645996,-7.489868l0.27301,0.003998l0.262024,-0.003998c4.617004,0 7.997009,3.406937 9.250977,8.35585c1.958008,-4.886917 5.64502,-8.35585 10.507019,-8.35585l0.252014,0.003998l0.283997,-0.003998c3.436951,0 6.740967,2.217957 8.459961,5.582886c1.652039,3.212967 1.587036,7.494934 1.587036,11.090912l-0.002014,21.867004c0.002014,0.69696 -0.559998,1.26001 -1.27002,1.307007l-3.110962,0c-0.671021,-0.020996 -1.220032,-0.502014 -1.309021,-1.129028l0,-22.044983c0,-2.60199 0.130981,-5.354004 -0.927002,-7.725967c-1.080017,-2.426971 -3.138977,-3.934937 -5.353027,-4.045929c-2.471985,0.122009 -4.740967,1.916962 -6.20697,4.351913c-1.919006,3.136993 -1.85199,5.96698 -1.85199,9.63797l0,19.83902c-0.087036,0.604004 -0.611023,1.073975 -1.259033,1.117004l-3.096008,0c-0.733948,-0.02301 -1.322998,-0.596008 -1.322998,-1.307007l-0.013977,-23.320007c0,-2.143005 -0.132019,-4.66597 -1.122986,-6.577957c-1.143005,-2.200958 -3.194031,-3.626923 -5.343994,-3.739929c-2.229004,0.125 -4.484985,1.827972 -5.822021,3.815948c-1.718018,2.522934 -2.049011,5.659927 -2.049011,8.87294l-0.001953,20.949005c0,0.69696 -0.562012,1.259949 -1.271057,1.307007l-3.094971,0z"/>
     <path fill="#ffffff" id="path25" d="m495.509827,127.716766c-10.046997,0 -14.541992,-10.249969 -14.541992,-20.49794c0,-10.783966 5.289001,-20.114838 15.401978,-20.114838l0.261047,0.002014l0.272949,-0.002014c9.851013,0 14.743042,9.942871 14.743042,20.190826c0,10.860992 -5.421021,20.421951 -15.603027,20.421951l-0.26001,-0.003967l-0.273987,0.003967zm0.742004,-4.976974c3.305969,-0.107971 5.913025,-2.154968 7.45697,-5.577988c1.388,-3.059998 1.652039,-6.576965 1.652039,-9.942001c0,-3.671997 -0.397034,-7.496002 -2.11499,-10.630951c-1.539001,-2.742966 -4.192993,-4.479935 -7.005005,-4.584915c-3.130005,0.11499 -5.920044,2.22995 -7.333008,5.501892c-1.255981,2.830002 -1.653015,6.577988 -1.653015,9.713974c0,3.51799 0.463013,7.572006 1.91803,10.631012c1.411987,2.896973 4.135986,4.784973 7.078979,4.888977z"/>
     <path fill="#ffffff" id="path27" d="m464.111877,122.587814c4.510986,-0.143005 6.878967,-3.757019 7.860962,-8.442978c0.192017,-0.584045 0.641052,-1.033997 1.298035,-1.033997l2.982971,-0.013c0.703979,0.036987 1.351013,0.575989 1.296997,1.231995c-1.377991,7.970993 -6.188965,13.386932 -13.046997,13.386932l-0.276001,-0.003967l-0.26001,0.003967c-9.980957,0 -14.276978,-10.019928 -14.276978,-20.19194c0,-10.095993 4.362,-20.420837 14.343994,-20.420837l0.264038,0.003021l0.271973,-0.003021c6.926025,0 11.868958,5.337936 12.942017,13.313812c0,0.598022 -0.555054,1.115021 -1.206055,1.19101l-3.126953,-0.036987c-0.650024,-0.09201 -1.078979,-0.657013 -1.177002,-1.28302c-0.752991,-4.45195 -3.310974,-7.992874 -7.570984,-8.132889c-6.787048,0.21701 -8.718018,8.569901 -8.718018,14.985916c0,6.193985 1.611023,15.221985 8.39801,15.445984z"/>
     <path fill="#ffffff" fill-rule="evenodd" id="path29" d="m322.277893,109.583801c0,2.76001 0.065002,5.059021 -1.325012,7.512024c-1.127014,1.994003 -2.914978,3.218979 -4.901978,3.218979c-2.717041,0 -4.307007,-2.070007 -4.307007,-5.134995c0,-6.031006 5.409973,-7.128967 10.533997,-7.128967l0,1.532959zm7.139954,17.265976c-0.469971,0.420044 -1.144958,0.449036 -1.67395,0.166016c-2.352051,-1.955994 -2.77301,-2.859009 -4.059021,-4.721008c-3.888,3.960999 -6.640991,5.14801 -11.676025,5.14801c-5.961975,0 -10.599976,-3.679993 -10.599976,-11.036972c0,-5.75 3.112976,-9.658005 7.552002,-11.574997c3.843018,-1.687012 9.208984,-1.992004 13.315979,-2.451996l0,-0.920013c0,-1.687012 0.132019,-3.679977 -0.860962,-5.135941c-0.861023,-1.304001 -2.518005,-1.840012 -3.976013,-1.840012c-2.700012,0 -5.10199,1.383987 -5.690979,4.25296c-0.123047,0.638 -0.588013,1.268982 -1.230042,1.302002l-6.862976,-0.743011c-0.580017,-0.131012 -1.225037,-0.596008 -1.057983,-1.479996c1.578003,-8.326859 9.097961,-10.842819 15.836975,-10.842819c3.445007,0 7.950012,0.919998 10.666016,3.525955c3.445007,3.218933 3.112976,7.511871 3.112976,12.187851l0,11.033005c0,3.317993 1.379028,4.772995 2.674011,6.562973c0.450989,0.64502 0.554016,1.410034 -0.02301,1.881042c-1.447021,1.212952 -4.018005,3.444946 -5.432007,4.703003l-0.015015,-0.016052z" clip-rule="evenodd"/>
     <path fill="#ffffff" fill-rule="evenodd" id="path31" d="m229.442856,109.583801c0,2.76001 0.06601,5.059021 -1.325012,7.512024c-1.125977,1.994003 -2.914978,3.218979 -4.901978,3.218979c-2.715027,0 -4.306015,-2.070007 -4.306015,-5.134995c0,-6.031006 5.409988,-7.128967 10.533005,-7.128967l0,1.532959zm7.139969,17.265976c-0.468994,0.420044 -1.144958,0.449036 -1.672974,0.166016c-2.352966,-1.955994 -2.773987,-2.859009 -4.059998,-4.721008c-3.887009,3.960999 -6.641006,5.14801 -11.675003,5.14801c-5.962997,0 -10.599991,-3.679993 -10.599991,-11.036972c0,-5.75 3.113998,-9.658005 7.552002,-11.574997c3.841995,-1.687012 9.209,-1.992004 13.315994,-2.451996l0,-0.920013c0,-1.687012 0.131989,-3.679977 -0.860992,-5.135941c-0.862,-1.304001 -2.519012,-1.840012 -3.975006,-1.840012c-2.700989,0 -5.102997,1.383987 -5.692001,4.25296c-0.123001,0.638 -0.587006,1.268982 -1.229996,1.302002l-6.863998,-0.743011c-0.580002,-0.131012 -1.225006,-0.596008 -1.057007,-1.479996c1.576996,-8.326859 9.097,-10.842819 15.836014,-10.842819c3.444977,0 7.948959,0.919998 10.666,3.525955c3.443954,3.218933 3.112976,7.511871 3.112976,12.187851l0,11.033005c0,3.317993 1.377975,4.772995 2.673019,6.562973c0.451965,0.64502 0.552979,1.410034 -0.02301,1.881042c-1.446045,1.212952 -4.017014,3.444946 -5.431015,4.703003l-0.015015,-0.016052z" clip-rule="evenodd"/>
    </g>
   </g>
  </g>
  <g>
   <g transform="matrix(0.227012, 0, 0, 0.227012, -45.5597, -17.568)" id="g5">
    <path fill="#ff9900" fill-rule="evenodd" id="path7" d="m350.524841,140.894562c-13.294006,9.811005 -32.567993,15.028992 -49.164001,15.028992c-23.260986,0 -44.206024,-8.597992 -60.05806,-22.909973c-1.243988,-1.123016 -0.133972,-2.660004 1.362,-1.789001c17.101059,9.950989 38.249069,15.942993 60.092056,15.942993c14.734009,0 30.932007,-3.057007 45.834991,-9.378998c2.249023,-0.953003 4.133026,1.483002 1.933014,3.105988z" clip-rule="evenodd"/>
    <path fill="#ff9900" fill-rule="evenodd" id="path9" d="m356.057861,134.579559c-1.700012,-2.178009 -11.23999,-1.031006 -15.524994,-0.519989c-1.298004,0.153992 -1.499023,-0.97702 -0.32901,-1.799011c7.609009,-5.346016 20.078003,-3.800995 21.527008,-2.014008c1.460999,1.807007 -0.382019,14.307007 -7.514008,20.27301c-1.097992,0.917999 -2.140991,0.428009 -1.653992,-0.78302c1.602997,-4.005981 5.196991,-12.978973 3.494995,-15.156982z" clip-rule="evenodd"/>
   </g>
  </g>
  <g>
   <g transform="matrix(0.227012, 0, 0, 0.227012, -45.5597, -17.568)" id="g11">
    <path fill="#ffffff" fill-rule="evenodd" id="path13" d="m340.833862,94.502586l0,-5.192902c0.003998,-0.789993 0.600006,-1.317001 1.31601,-1.315994l23.276978,-0.001984c0.744995,0.000977 1.34201,0.541992 1.344025,1.312973l-0.002014,4.453934c-0.006012,0.746964 -0.63501,1.721954 -1.752014,3.269951l-12.057983,17.214973c4.475983,-0.10498 9.209991,0.563995 13.276001,2.851021c0.917999,0.514984 1.164001,1.278992 1.234985,2.026978l0,5.542023c0,0.761993 -0.834991,1.646004 -1.712982,1.187988c-7.165009,-3.753998 -16.673004,-4.164001 -24.595001,0.045013c-0.811005,0.431984 -1.657013,-0.438995 -1.657013,-1.203003l0,-5.269012c0,-0.84198 0.016022,-2.283997 0.865997,-3.569008l13.969025,-20.040955l-12.162018,-0.002014c-0.742004,-0.001984 -1.337982,-0.531967 -1.343994,-1.309982z" clip-rule="evenodd"/>
    <path fill="#ffffff" fill-rule="evenodd" id="path15" d="m255.923813,126.941551l-7.082001,0c-0.674011,-0.045013 -1.212006,-0.550995 -1.266998,-1.196999l0.005005,-36.345879c0,-0.727997 0.612,-1.308975 1.367004,-1.308975l6.595001,-0.002014c0.690018,0.035004 1.244003,0.557999 1.28801,1.220993l0,4.744919l0.131989,0c1.719025,-4.588913 4.958038,-6.729904 9.321045,-6.729904c4.428986,0 7.204987,2.141968 9.188995,6.729904c1.717987,-4.588913 5.618011,-6.729904 9.78299,-6.729904c2.975006,0 6.21402,1.223984 8.197021,3.977936c2.247986,3.058975 1.78598,7.493904 1.78598,11.395912l-0.005981,22.936996c0,0.725014 -0.612,1.308998 -1.366028,1.308998l-7.072998,0c-0.709991,-0.046997 -1.270996,-0.608978 -1.270996,-1.306984l-0.000977,-19.268021c0,-1.528992 0.131989,-5.354004 -0.198029,-6.807007c-0.528992,-2.44696 -2.11499,-3.135963 -4.164001,-3.135963c-1.718994,0 -3.503998,1.146996 -4.230988,2.981972c-0.727997,1.835999 -0.661011,4.894989 -0.661011,6.959991l0,19.266006c0,0.725014 -0.612,1.309029 -1.365997,1.309029l-7.073975,0c-0.710022,-0.046997 -1.271027,-0.609009 -1.271027,-1.307014l-0.005981,-19.268021c0,-4.053009 0.66098,-10.018974 -4.363007,-10.018974c-5.091034,0 -4.892029,5.812981 -4.892029,10.018974l-0.002991,19.266006c-0.001007,0.724007 -0.614014,1.308022 -1.368027,1.308022z" clip-rule="evenodd"/>
    <path fill="#ffffff" fill-rule="evenodd" id="path17" d="m386.808838,87.323692c10.510986,0 16.194,9.024857 16.194,20.496841c0,11.090004 -6.277985,19.887009 -16.194,19.887009c-10.312012,0 -15.931,-9.025002 -15.931,-20.270004c0,-11.317993 5.684998,-20.113846 15.931,-20.113846zm0.06601,7.418884c-5.222015,0 -5.552002,7.111946 -5.552002,11.548927c0,4.436012 -0.065002,13.920029 5.487,13.920029c5.487,0 5.751007,-7.648018 5.751007,-12.312996c0,-3.060036 -0.133026,-6.731026 -1.058014,-9.637993c-0.794006,-2.523994 -2.381012,-3.517967 -4.627991,-3.517967z" clip-rule="evenodd"/>
    <path fill="#ffffff" fill-rule="evenodd" id="path19" d="m416.63385,126.941551l-7.054993,0c-0.710022,-0.046997 -1.270996,-0.609009 -1.270996,-1.307014l-0.011017,-36.358879c0.059998,-0.664001 0.645996,-1.185959 1.360016,-1.185959l6.569,-0.002014c0.617981,0.031006 1.127991,0.45401 1.257996,1.018997l0,5.558899l0.134003,0c1.983002,-4.970932 4.759003,-7.341888 9.648987,-7.341888c3.173004,0 6.281006,1.146988 8.264008,4.282944c1.852997,2.90593 1.852997,7.800896 1.852997,11.318901l0,22.871017c-0.079987,0.644997 -0.65799,1.144997 -1.356995,1.144997l-7.100006,0c-0.656006,-0.042999 -1.184998,-0.524994 -1.261993,-1.144997l0,-19.735031c0,-3.977997 0.463989,-9.78997 -4.429016,-9.78997c-1.720001,0 -3.306,1.14698 -4.097992,2.905968c-0.992004,2.218018 -1.125,4.436005 -1.125,6.884003l0,19.57103c-0.010986,0.724983 -0.622986,1.308998 -1.378998,1.308998z" clip-rule="evenodd"/>
    <ellipse fill="#ffffff" fill-rule="evenodd" ry="3.312" rx="3.485" id="ellipse21" cy="124.057726" cx="445.307805" clip-rule="evenodd"/>
    <path fill="#ffffff" id="path23" d="m516.85083,126.951561c-0.734009,-0.02301 -1.320007,-0.596008 -1.320007,-1.307014l0,-36.35186c0.049988,-0.640991 0.59198,-1.151993 1.267029,-1.194992l2.600952,-0.001007c0.715027,0 1.301025,0.521988 1.359009,1.197006l0,5.299896c1.848999,-4.198929 5.29303,-7.489876 9.645996,-7.489876l0.27301,0.003998l0.262024,-0.003998c4.617004,0 7.997009,3.406944 9.250977,8.355858c1.958008,-4.886917 5.64502,-8.355858 10.507019,-8.355858l0.252014,0.003998l0.283997,-0.003998c3.436951,0 6.740967,2.217964 8.459961,5.582893c1.652039,3.212967 1.587036,7.494942 1.587036,11.090919l-0.002014,21.86702c0.002014,0.696999 -0.559998,1.260017 -1.27002,1.307014l-3.110962,0c-0.671021,-0.020996 -1.220032,-0.502014 -1.309021,-1.129005l0,-22.045029c0,-2.60199 0.130981,-5.354004 -0.927002,-7.725975c-1.080017,-2.426971 -3.138977,-3.934937 -5.353027,-4.045929c-2.471985,0.122009 -4.740967,1.916962 -6.20697,4.351913c-1.919006,3.137001 -1.85199,5.966988 -1.85199,9.637978l0,19.839035c-0.087036,0.604012 -0.611023,1.074013 -1.259033,1.117012l-3.096008,0c-0.733948,-0.02301 -1.322998,-0.596008 -1.322998,-1.307014l-0.013977,-23.320023c0,-2.143005 -0.132019,-4.66597 -1.122986,-6.577965c-1.143005,-2.200958 -3.194031,-3.626923 -5.343994,-3.739929c-2.229004,0.125 -4.484985,1.827972 -5.822021,3.815948c-1.718018,2.522942 -2.049011,5.659935 -2.049011,8.872948l-0.001953,20.94902c0,0.696999 -0.562012,1.259987 -1.271057,1.307014l-3.094971,0z"/>
    <path fill="#ffffff" id="path25" d="m495.509827,127.716545c-10.046997,0 -14.541992,-10.250008 -14.541992,-20.498001c0,-10.783981 5.289001,-20.114861 15.401978,-20.114861l0.261047,0.002014l0.272949,-0.002014c9.851013,0 14.743042,9.942886 14.743042,20.190849c0,10.861 -5.421021,20.422012 -15.603027,20.422012l-0.26001,-0.003998l-0.273987,0.003998zm0.742004,-4.976997c3.305969,-0.108002 5.913025,-2.154999 7.45697,-5.578003c1.388,-3.060005 1.652039,-6.577003 1.652039,-9.942024c0,-3.672005 -0.397034,-7.49601 -2.11499,-10.630966c-1.539001,-2.742966 -4.192993,-4.479935 -7.005005,-4.584915c-3.130005,0.11499 -5.920044,2.22995 -7.333008,5.5019c-1.255981,2.830002 -1.653015,6.577988 -1.653015,9.713982c0,3.518005 0.463013,7.572021 1.91803,10.63102c1.411987,2.897003 4.135986,4.785004 7.078979,4.889008z"/>
    <path fill="#ffffff" id="path27" d="m464.111847,122.58754c4.511017,-0.143005 6.878998,-3.756989 7.860992,-8.443001c0.192017,-0.584015 0.641022,-1.033997 1.298004,-1.033997l2.983002,-0.013c0.703979,0.036987 1.351013,0.575989 1.296997,1.231995c-1.377991,7.971016 -6.188995,13.387009 -13.046997,13.387009l-0.276001,-0.003998l-0.26001,0.003998c-9.980988,0 -14.276978,-10.019997 -14.276978,-20.192001c0,-10.096001 4.362,-20.42086 14.343994,-20.42086l0.264008,0.003021l0.272003,-0.003021c6.925995,0 11.868958,5.337944 12.942017,13.313828c0,0.598022 -0.555054,1.115021 -1.206055,1.19101l-3.126984,-0.036987c-0.649994,-0.09201 -1.078979,-0.657013 -1.177002,-1.28302c-0.752991,-4.451958 -3.310974,-7.992882 -7.570984,-8.132896c-6.787018,0.21701 -8.718018,8.569908 -8.718018,14.985931c0,6.194 1.611023,15.221992 8.39801,15.445992z"/>
    <path fill="#ffffff" fill-rule="evenodd" id="path29" d="m322.277863,109.583534c0,2.76001 0.065002,5.05899 -1.325012,7.512001c-1.126984,1.994019 -2.914978,3.218994 -4.901978,3.218994c-2.71701,0 -4.307007,-2.069977 -4.307007,-5.134987c0,-6.031006 5.410004,-7.128998 10.533997,-7.128998l0,1.53299zm7.139984,17.266006c-0.470001,0.420013 -1.144989,0.449005 -1.673981,0.166016c-2.35202,-1.956001 -2.77301,-2.859016 -4.059021,-4.721016c-3.888,3.961006 -6.640991,5.148018 -11.675995,5.148018c-5.962006,0 -10.600006,-3.680031 -10.600006,-11.037025c0,-5.750008 3.113007,-9.657997 7.552002,-11.574997c3.843018,-1.687012 9.209015,-1.992004 13.31601,-2.451996l0,-0.920013c0,-1.687012 0.131989,-3.679977 -0.860992,-5.135948c-0.860992,-1.304001 -2.518005,-1.840012 -3.976013,-1.840012c-2.699982,0 -5.10199,1.383987 -5.690979,4.252968c-0.123016,0.638 -0.588013,1.268982 -1.230011,1.302002l-6.863007,-0.743011c-0.579987,-0.131012 -1.225006,-0.596008 -1.057983,-1.479996c1.578003,-8.326866 9.097992,-10.842834 15.836975,-10.842834c3.445007,0 7.950012,0.920006 10.666016,3.525963c3.445007,3.218933 3.113007,7.511879 3.113007,12.187859l0,11.033028c0,3.318001 1.378998,4.772987 2.673981,6.562996c0.451019,0.644989 0.554016,1.410004 -0.02298,1.881012c-1.447021,1.212982 -4.018005,3.444977 -5.432007,4.703011l-0.015015,-0.016022z" clip-rule="evenodd"/>
    <path fill="#ffffff" fill-rule="evenodd" id="path31" d="m229.442795,109.583534c0,2.76001 0.06601,5.05899 -1.325012,7.512001c-1.125977,1.994019 -2.914978,3.218994 -4.901978,3.218994c-2.715027,0 -4.306015,-2.069977 -4.306015,-5.134987c0,-6.031006 5.409988,-7.128998 10.533005,-7.128998l0,1.53299zm7.139984,17.266006c-0.468994,0.420013 -1.144989,0.449005 -1.672974,0.166016c-2.352997,-1.956001 -2.774017,-2.859016 -4.059998,-4.721016c-3.887024,3.961006 -6.641022,5.148018 -11.675018,5.148018c-5.962997,0 -10.599991,-3.680031 -10.599991,-11.037025c0,-5.750008 3.113998,-9.657997 7.552002,-11.574997c3.841995,-1.687012 9.209,-1.992004 13.315994,-2.451996l0,-0.920013c0,-1.687012 0.131989,-3.679977 -0.860992,-5.135948c-0.862,-1.304001 -2.519012,-1.840012 -3.975006,-1.840012c-2.700989,0 -5.102997,1.383987 -5.692001,4.252968c-0.123001,0.638 -0.587006,1.268982 -1.229996,1.302002l-6.863998,-0.743011c-0.580002,-0.131012 -1.225006,-0.596008 -1.057007,-1.479996c1.576996,-8.326866 9.097,-10.842834 15.836014,-10.842834c3.444977,0 7.948975,0.920006 10.665985,3.525963c3.444,3.218933 3.113007,7.511879 3.113007,12.187859l0,11.033028c0,3.318001 1.377991,4.772987 2.673004,6.562996c0.451996,0.644989 0.552979,1.410004 -0.02301,1.881012c-1.446014,1.212982 -4.016998,3.444977 -5.431,4.703011l-0.015015,-0.016022z" clip-rule="evenodd"/>
   </g>
  </g>
 </g>
</svg>